<?xml version="1.0" encoding="UTF-8"?>
<svg id="Layer_1" data-name="Layer 1" xmlns="http://www.w3.org/2000/svg" viewBox="0 0 531.83 552.94">
  <defs>
    <style>
      .cls-1 {
        fill: #390;
      }
    </style>
  </defs>
  <path d="m239.01,0c47.25,34.02,97.73,61.61,155.31,77.22-15.08,15.56-29.39,30.58-44.14,45.14-1.47,1.45-5.98.91-8.59-.04-34.38-12.58-67.03-28.75-97.88-48.45-4.52-2.88-7.72-3.48-12.64-.4-51.46,32.27-106.19,56.55-166.34,67.54-2.21.4-5.5,3.98-5.5,6.09-.19,53.19-1.35,106.42.52,159.55,1.56,44.36,25.29,78.95,56.57,108.63,33.82,32.09,73.58,54.94,116.18,73.14,2.41,1.03,5.97,1.36,8.28.36,52.5-22.84,101.13-51.35,138.13-96.37,24.25-29.52,38.51-63.26,35.89-101.72-1.77-25.99,4.38-46.95,23.11-65.47,12.75-12.6,22.95-27.79,35.48-43.3.25,4.35.52,6.84.52,9.33.03,30.91-.85,61.84.19,92.71,2.37,69.87-25.66,126.14-75.27,173.16-43.53,41.25-94.8,69.95-150.09,92.07-2.72,1.09-5.3,2.49-7.95,3.75h-7.13c-2.66-1.24-5.26-2.62-7.98-3.69-48.06-18.95-93.04-43.34-132.85-76.51-40.51-33.75-72.38-73.65-86.05-125.79-2.85-10.85-4.54-22.01-6.77-33.03,0-73.13,0-146.26,0-219.39,4.24-2.22,8.38-6.15,12.73-6.39,32.87-1.81,64.57-8.87,95.54-19.68C154.3,52.4,195.89,28.09,235.44,0h3.57Z"/>
  <path class="cls-1" d="m234.47,280.65c21.29-19.84,42.23-37.94,61.56-57.62,62.03-63.16,123.45-126.92,185.16-190.39,13.74-14.13,19.1-14.22,33.41-1.34,22.16,19.94,22.34,22.78,4,45.41-46.74,57.67-93.43,115.37-140.08,173.11-40.11,49.64-80.12,99.36-120.19,149.03-1.49,1.85-3.03,3.66-4.59,5.46-11.15,12.85-23.25,12.81-33.21-1.12-10.36-14.49-19.9-29.58-29.48-44.61-28.39-44.54-56.6-89.2-84.94-133.78-9.12-14.35-8.22-20.43,5.17-30.88,4.21-3.29,8.49-6.5,12.86-9.57,10.5-7.39,16.24-7.32,24.93,2.1,21.95,23.8,43.47,48,65.18,72.02,7.31,8.09,14.69,16.13,20.2,22.18Z"/>
</svg>