<?xml version="1.0" encoding="UTF-8"?>
<svg id="Layer_1" data-name="Layer 1" xmlns="http://www.w3.org/2000/svg" viewBox="0 0 622.67 699.24">
  <defs>
    <style>
      .cls-1 {
        fill: #20bc0a;
      }
    </style>
  </defs>
  <path d="m517.94,64.33c-7.45,8.15-13.65,15.01-19.93,21.79-7.21,7.77-14.69,15.3-21.66,23.28-3.5,4-6.98,4.62-11.99,3.38-49.48-12.22-97.51-28.81-144.73-47.83-5.89-2.37-10.79-2.27-16.63.08-59.52,23.98-120.29,44.03-183.41,56.28-17.61,3.42-35.39,6.14-53.19,8.35-6.47.8-7.74,3.41-7.5,9.11,1.38,32.62,1.48,65.32,4.05,97.84,2.53,32.06,6.29,64.13,11.65,95.83,8.67,51.27,29.57,97.87,57.9,141.37,22.74,34.92,47.56,68.17,76.88,97.79,23.35,23.59,48.82,44.54,78.52,60.13,16.06,8.43,30.83,8.42,46.81.02,21.64-11.37,41.21-25.49,59.24-41.78,49.52-44.75,88.27-97.94,119.76-156.41,21.35-39.65,32.97-82.69,39.37-127.11,6.43-44.56,9.22-89.41,9.7-133.59-4.31,3.78-9.3,7.51-13.5,11.98-23.88,25.35-47.58,50.86-71.33,76.33-46.02,49.36-92.03,98.73-138.05,148.08-13.28,14.24-26.67,28.37-39.84,42.71-3.03,3.3-5.07,3.47-8.41.27-26.24-25.14-52.62-50.15-79.01-75.14-22.3-21.12-44.58-42.27-67.09-63.16-4.42-4.11-4.26-6.59-.06-10.79,10.68-10.72,20.93-21.88,31.13-33.07,3-3.3,5.09-3.65,8.45-.44,24.87,23.76,49.88,47.38,74.84,71.05,9.73,9.23,19.52,18.4,29.1,27.79,3.27,3.21,5.64,2.91,8.62-.3,32.05-34.58,64.16-69.11,96.29-103.62,18.86-20.27,37.78-40.48,56.69-60.7,39.15-41.87,78.38-83.66,117.39-125.66,4.09-4.41,8.19-6.16,14.13-5.55,11.6,1.19,23.27,1.88,34.92,2.54,4.17.24,5.67,2.12,5.62,6.11-.44,38.07-.41,76.16-1.35,114.22-.6,24.41-2.03,48.83-4.09,73.15-7,82.4-27.52,160.48-73.22,230.79-27.68,42.6-57.7,83.23-93.9,118.96-25.65,25.32-53.37,48.33-85.89,64.33-13.82,6.8-28.88,11.75-43.91,15.28-17.13,4.01-33.39-2.51-49-9.13-30.45-12.9-56.82-32.21-81.15-54.2-57.82-52.27-103.01-114.3-138.22-183.55-22.27-43.8-34.78-90.9-41.14-139.47-3.75-28.69-6.71-57.59-7.87-86.49C1.07,178.29,1.05,131.34,0,84.42c-.14-6.34,1.33-9.16,8.35-9.69,23.48-1.77,47.02-3.46,70.33-6.7,50.54-7.02,99.55-20.54,147.58-37.53,25.08-8.88,49.9-18.52,74.66-28.29,7.32-2.89,13.64-2.99,21.03.02,49.32,20.13,99.29,38.41,150.99,51.59,10.69,2.72,21.52,4.89,32.27,7.36,3.73.86,7.44,1.84,12.71,3.16Z"/>
  <path class="cls-1" d="m562.79,172.84l2.54-91.81-269.1,288.44c-.21.2-1.33,1.26-3.08,1.24-1.68-.02-2.75-1.02-2.97-1.24-36.47-34.6-72.94-69.21-109.42-103.81l-40.21,42.6,152.85,145.37c.25.21,1.06.82,2.26.87,1.4.06,2.35-.69,2.58-.87,88.19-93.6,176.38-187.19,264.57-280.79Z"/>
</svg>