<?xml version="1.0" encoding="utf-8"?>
<!-- Generator: Adobe Illustrator 26.0.1, SVG Export Plug-In . SVG Version: 6.00 Build 0)  -->
<svg version="1.1" id="Layer_1" xmlns="http://www.w3.org/2000/svg" xmlns:xlink="http://www.w3.org/1999/xlink" x="0px" y="0px"
	 viewBox="0 0 600 600" style="enable-background:new 0 0 600 600;" xml:space="preserve">
<style type="text/css">
	.st0{fill:url(#SVGID_1_);}
	.st1{fill:url(#SVGID_00000034086765066495330280000008163716101781519745_);}
	.st2{fill:url(#SVGID_00000141420569132015782150000007406948465738845570_);}
	
		.st3{fill:none;stroke:url(#SVGID_00000172426788620845939480000007647496331907270557_);stroke-width:1.0778;stroke-miterlimit:10;}
	
		.st4{fill:none;stroke:url(#SVGID_00000108271774874238053750000004102722648699799457_);stroke-width:1.0778;stroke-miterlimit:10;}
	
		.st5{fill:none;stroke:url(#SVGID_00000049943238409135443480000011269815735422284721_);stroke-width:1.0778;stroke-miterlimit:10;}
	
		.st6{fill:none;stroke:url(#SVGID_00000145023280293909452300000000484640863448569739_);stroke-width:1.0778;stroke-miterlimit:10;}
	.st7{fill:url(#SVGID_00000036952575006142327010000008928077676205256578_);}
	.st8{fill:none;}
	.st9{fill:#FFFFFF;}
	.st10{font-family:'ArialMT';}
	.st11{font-size:10.9994px;}
	.st12{font-size:11px;}
	.st13{font-size:11.0005px;}
	.st14{font-size:10.9995px;}
	.st15{font-size:10.9993px;}
	.st16{font-size:10.9996px;}
	.st17{font-size:10px;}
	.st18{font-size:10.0004px;}
	.st19{font-size:10.0005px;}
	.st20{font-size:9.9994px;}
	.st21{font-size:9.9996px;}
	.st22{fill:#272424;}
	.st23{font-size:25px;}
</style>
<g>
	<g>
		
			<image style="overflow:visible;opacity:0.3;enable-background:new    ;" width="225" height="202" xlink:href="4EB7C349.png"  transform="matrix(1 0 0 1 188 199)">
		</image>
		<g>
			
				<linearGradient id="SVGID_1_" gradientUnits="userSpaceOnUse" x1="296.56" y1="390.2123" x2="296.56" y2="214.5318" gradientTransform="matrix(1 0 0 -1 0 600)">
				<stop  offset="0" style="stop-color:#C59219"/>
				<stop  offset="3.890000e-02" style="stop-color:#D1A83D"/>
				<stop  offset="8.030000e-02" style="stop-color:#DBBB5C"/>
				<stop  offset="0.1206" style="stop-color:#E3C872"/>
				<stop  offset="0.1591" style="stop-color:#E7D07F"/>
				<stop  offset="0.1938" style="stop-color:#E9D384"/>
				<stop  offset="0.2542" style="stop-color:#E3C872"/>
				<stop  offset="0.3745" style="stop-color:#D3AC44"/>
				<stop  offset="0.4748" style="stop-color:#C59219"/>
				<stop  offset="0.5164" style="stop-color:#BE8815"/>
				<stop  offset="0.7038" style="stop-color:#A15C06"/>
				<stop  offset="0.7988" style="stop-color:#964B00"/>
			</linearGradient>
			<path class="st0" d="M296.6,375c-4.7,0-8.8-6.4-13.2-7.2c-4.6-0.8-10.6,3.8-14.9,2.2c-4.4-1.6-6-9-10-11.3
				c-4-2.3-11.2-0.1-14.7-3c-3.5-3-2.6-10.5-5.5-14c-3-3.5-10.5-3.9-12.8-7.9c-2.3-4,1.2-10.7-0.4-15c-1.6-4.3-8.6-7.2-9.4-11.8
				c-0.8-4.5,4.8-9.6,4.8-14.3s-5.6-9.8-4.8-14.3c0.8-4.6,7.8-7.5,9.4-11.8c1.6-4.4-1.9-11.1,0.4-15c2.3-4,9.9-4.3,12.8-7.9
				c3-3.5,2-11,5.5-14c3.5-3,10.8-0.7,14.7-3c4-2.3,5.6-9.7,10-11.3c4.3-1.6,10.3,3,14.9,2.2c4.5-0.8,8.5-7.2,13.2-7.2
				s8.8,6.4,13.2,7.2c4.6,0.8,10.6-3.8,14.9-2.2c4.4,1.6,6,9,10,11.3c4,2.3,11.2,0.1,14.7,3c3.5,3,2.5,10.5,5.5,14
				c3,3.5,10.5,3.9,12.8,7.9c2.3,4-1.2,10.7,0.4,15c1.6,4.3,8.6,7.2,9.4,11.8c0.8,4.5-4.8,9.6-4.8,14.3s5.6,9.8,4.8,14.3
				c-0.8,4.6-7.8,7.5-9.4,11.8c-1.6,4.4,1.9,11.1-0.4,15c-2.3,4-9.9,4.3-12.8,7.9c-3,3.5-2,11-5.5,14c-3.5,3-10.8,0.7-14.7,3
				c-4,2.3-5.6,9.7-10,11.3c-4.3,1.6-10.3-3-14.9-2.2C305.3,368.6,301.2,375,296.6,375z"/>
			
				<linearGradient id="SVGID_00000142141069836325440230000000884033759879838111_" gradientUnits="userSpaceOnUse" x1="296.555" y1="262.3254" x2="296.555" y2="379.3605" gradientTransform="matrix(1 0 0 -1 0 600)">
				<stop  offset="0.2012" style="stop-color:#964B00"/>
				<stop  offset="0.2962" style="stop-color:#A15C06"/>
				<stop  offset="0.4836" style="stop-color:#BE8815"/>
				<stop  offset="0.5252" style="stop-color:#C59219"/>
				<stop  offset="0.6255" style="stop-color:#D3AC44"/>
				<stop  offset="0.7458" style="stop-color:#E3C872"/>
				<stop  offset="0.8062" style="stop-color:#E9D384"/>
				<stop  offset="0.8409" style="stop-color:#E7D07F"/>
				<stop  offset="0.8794" style="stop-color:#E3C872"/>
				<stop  offset="0.9197" style="stop-color:#DBBB5C"/>
				<stop  offset="0.9611" style="stop-color:#D1A83D"/>
				<stop  offset="1" style="stop-color:#C59219"/>
			</linearGradient>
			<path style="fill:url(#SVGID_00000142141069836325440230000000884033759879838111_);" d="M296.6,363.4
				c-38.9,0-70.6-31.7-70.6-70.6s31.7-70.6,70.6-70.6c38.9,0,70.6,31.7,70.6,70.6S335.5,363.4,296.6,363.4z"/>
			
				<linearGradient id="SVGID_00000173146315311856859390000018185827098245152128_" gradientUnits="userSpaceOnUse" x1="296.56" y1="370.4222" x2="296.56" y2="266.0521" gradientTransform="matrix(1 0 0 -1 0 600)">
				<stop  offset="0" style="stop-color:#272424"/>
				<stop  offset="0.7487" style="stop-color:#0B0A0A"/>
				<stop  offset="1" style="stop-color:#000000"/>
			</linearGradient>
			<path style="fill:url(#SVGID_00000173146315311856859390000018185827098245152128_);" d="M296.6,226.5
				c-36.6,0-66.3,29.7-66.3,66.3s29.7,66.3,66.3,66.3c36.6,0,66.3-29.7,66.3-66.3S333.2,226.5,296.6,226.5L296.6,226.5z"/>
			
				<linearGradient id="SVGID_00000168806858171052990940000015761018947180183202_" gradientUnits="userSpaceOnUse" x1="243.1415" y1="264.2583" x2="350.6848" y2="264.2583" gradientTransform="matrix(1 0 0 -1 0 600)">
				<stop  offset="0" style="stop-color:#C59219"/>
				<stop  offset="3.890000e-02" style="stop-color:#D1A83D"/>
				<stop  offset="8.030000e-02" style="stop-color:#DBBB5C"/>
				<stop  offset="0.1206" style="stop-color:#E3C872"/>
				<stop  offset="0.1591" style="stop-color:#E7D07F"/>
				<stop  offset="0.1938" style="stop-color:#E9D384"/>
				<stop  offset="0.2542" style="stop-color:#E3C872"/>
				<stop  offset="0.3745" style="stop-color:#D3AC44"/>
				<stop  offset="0.4748" style="stop-color:#C59219"/>
				<stop  offset="0.5422" style="stop-color:#BE8815"/>
				<stop  offset="0.846" style="stop-color:#A15C06"/>
				<stop  offset="1" style="stop-color:#964B00"/>
			</linearGradient>
			
				<path style="fill:none;stroke:url(#SVGID_00000168806858171052990940000015761018947180183202_);stroke-width:1.0778;stroke-miterlimit:10;" d="
				M350.2,318.8c-9.7,19.9-30.1,33.6-53.6,33.6c-23,0-43-13.1-52.9-32.2"/>
			
				<linearGradient id="SVGID_00000160875400545047923160000005213191148024738223_" gradientUnits="userSpaceOnUse" x1="240.6594" y1="347.9763" x2="352.5818" y2="347.9763" gradientTransform="matrix(1 0 0 -1 0 600)">
				<stop  offset="0" style="stop-color:#C59219"/>
				<stop  offset="3.890000e-02" style="stop-color:#D1A83D"/>
				<stop  offset="8.030000e-02" style="stop-color:#DBBB5C"/>
				<stop  offset="0.1206" style="stop-color:#E3C872"/>
				<stop  offset="0.1591" style="stop-color:#E7D07F"/>
				<stop  offset="0.1938" style="stop-color:#E9D384"/>
				<stop  offset="0.2542" style="stop-color:#E3C872"/>
				<stop  offset="0.3745" style="stop-color:#D3AC44"/>
				<stop  offset="0.4748" style="stop-color:#C59219"/>
				<stop  offset="0.5422" style="stop-color:#BE8815"/>
				<stop  offset="0.846" style="stop-color:#A15C06"/>
				<stop  offset="1" style="stop-color:#964B00"/>
			</linearGradient>
			
				<path style="fill:none;stroke:url(#SVGID_00000160875400545047923160000005213191148024738223_);stroke-width:1.0778;stroke-miterlimit:10;" d="
				M241.2,270.8c8.8-22,30.3-37.6,55.4-37.6c25.2,0,46.9,15.8,55.5,37.9"/>
			
				<linearGradient id="SVGID_00000106128003740666131010000007463442168343471533_" gradientUnits="userSpaceOnUse" x1="272.7025" y1="276.5798" x2="321.5034" y2="276.5798" gradientTransform="matrix(1 0 0 -1 0 600)">
				<stop  offset="0" style="stop-color:#C59219"/>
				<stop  offset="3.890000e-02" style="stop-color:#D1A83D"/>
				<stop  offset="8.030000e-02" style="stop-color:#DBBB5C"/>
				<stop  offset="0.1206" style="stop-color:#E3C872"/>
				<stop  offset="0.1591" style="stop-color:#E7D07F"/>
				<stop  offset="0.1938" style="stop-color:#E9D384"/>
				<stop  offset="0.2542" style="stop-color:#E3C872"/>
				<stop  offset="0.3745" style="stop-color:#D3AC44"/>
				<stop  offset="0.4748" style="stop-color:#C59219"/>
				<stop  offset="0.5422" style="stop-color:#BE8815"/>
				<stop  offset="0.846" style="stop-color:#A15C06"/>
				<stop  offset="1" style="stop-color:#964B00"/>
			</linearGradient>
			
				<path style="fill:none;stroke:url(#SVGID_00000106128003740666131010000007463442168343471533_);stroke-width:1.0778;stroke-miterlimit:10;" d="
				M321.1,318.4c-6.4,6.1-15,9.9-24.6,9.9c-9,0-17.2-3.4-23.5-8.9"/>
			
				<linearGradient id="SVGID_00000112621271973061096050000012372760599089658004_" gradientUnits="userSpaceOnUse" x1="268.7643" y1="336.0124" x2="324.8428" y2="336.0124" gradientTransform="matrix(1 0 0 -1 0 600)">
				<stop  offset="0" style="stop-color:#C59219"/>
				<stop  offset="3.890000e-02" style="stop-color:#D1A83D"/>
				<stop  offset="8.030000e-02" style="stop-color:#DBBB5C"/>
				<stop  offset="0.1206" style="stop-color:#E3C872"/>
				<stop  offset="0.1591" style="stop-color:#E7D07F"/>
				<stop  offset="0.1938" style="stop-color:#E9D384"/>
				<stop  offset="0.2542" style="stop-color:#E3C872"/>
				<stop  offset="0.3745" style="stop-color:#D3AC44"/>
				<stop  offset="0.4748" style="stop-color:#C59219"/>
				<stop  offset="0.5422" style="stop-color:#BE8815"/>
				<stop  offset="0.846" style="stop-color:#A15C06"/>
				<stop  offset="1" style="stop-color:#964B00"/>
			</linearGradient>
			
				<path style="fill:none;stroke:url(#SVGID_00000112621271973061096050000012372760599089658004_);stroke-width:1.0778;stroke-miterlimit:10;" d="
				M269.2,270.2c6.5-7.9,16.4-12.9,27.4-12.9c11.3,0,21.4,5.3,27.9,13.5"/>
			
				<linearGradient id="SVGID_00000163051531003443059760000001046077995250115971_" gradientUnits="userSpaceOnUse" x1="205.0914" y1="305.515" x2="391.9514" y2="305.515" gradientTransform="matrix(1 0 0 -1 0 600)">
				<stop  offset="8.668350e-03" style="stop-color:#964B00"/>
				<stop  offset="2.020000e-02" style="stop-color:#9F5805"/>
				<stop  offset="5.280000e-02" style="stop-color:#B4780F"/>
				<stop  offset="8.010000e-02" style="stop-color:#C08B16"/>
				<stop  offset="9.880000e-02" style="stop-color:#C59219"/>
				<stop  offset="0.17" style="stop-color:#D0A73E"/>
				<stop  offset="0.1785" style="stop-color:#D4AF4B"/>
				<stop  offset="0.1982" style="stop-color:#DCBE62"/>
				<stop  offset="0.2192" style="stop-color:#E2C973"/>
				<stop  offset="0.242" style="stop-color:#E6CF7D"/>
				<stop  offset="0.2705" style="stop-color:#E7D180"/>
				<stop  offset="0.4108" style="stop-color:#F5E498"/>
				<stop  offset="0.4988" style="stop-color:#FFF1A9"/>
				<stop  offset="0.6368" style="stop-color:#F1DF91"/>
				<stop  offset="0.7234" style="stop-color:#E7D180"/>
				<stop  offset="0.7568" style="stop-color:#DFC369"/>
				<stop  offset="0.8267" style="stop-color:#CC9F2D"/>
				<stop  offset="0.8495" style="stop-color:#C59219"/>
				<stop  offset="0.8717" style="stop-color:#BF8915"/>
				<stop  offset="0.9081" style="stop-color:#AF710D"/>
				<stop  offset="0.952" style="stop-color:#964B00"/>
			</linearGradient>
			<polygon style="fill:url(#SVGID_00000163051531003443059760000001046077995250115971_);" points="390.2,272.9 297.5,272.9 
				295.6,272.9 202.9,272.9 214.7,294.5 202.9,316.1 295.6,316.1 297.5,316.1 390.2,316.1 378.4,294.5 			"/>
		</g>
	</g>
	<g>
		<path class="st8" d="M350.3,295.3c-1.4,29.4-26.4,52.2-55.8,50.9c-29.4-1.4-52.2-26.4-50.9-55.8c1.4-29.4,26.4-52.2,55.8-50.9
			C328.9,240.8,351.7,265.9,350.3,295.3z"/>
		<text transform="matrix(0.6353 0.7722 -0.7722 0.6353 254.9904 325.7696)" class="st9 st10 st11"> </text>
		<text transform="matrix(0.679 0.7341 -0.7341 0.679 256.9938 328.1687)" class="st9 st10 st12"> </text>
		<text transform="matrix(0.721 0.693 -0.693 0.721 259.1613 330.4764)" class="st9 st10 st13"> </text>
		<text transform="matrix(0.7602 0.6496 -0.6496 0.7602 261.4465 332.6403)" class="st9 st10 st11"> </text>
		<text transform="matrix(0.8187 0.5742 -0.5742 0.8187 263.941 334.8222)" class="st9 st10 st12">B</text>
		<text transform="matrix(0.8955 0.4451 -0.4451 0.8955 269.8732 338.9447)" class="st9 st10 st12">O</text>
		<text transform="matrix(0.9561 0.2929 -0.2929 0.9561 277.8718 342.7867)" class="st9 st10 st14">N</text>
		<text transform="matrix(0.9831 0.1828 -0.1828 0.9831 285.8756 345.0365)" class="st9 st10 st14">I</text>
		<text transform="matrix(0.9964 8.450000e-02 -8.450000e-02 0.9964 289.4622 345.7364)" class="st9 st10 st12">K</text>
		<text transform="matrix(1 -9.932643e-03 9.932643e-03 1 296.3675 346.1893)" class="st9 st10 st11"> </text>
		<text transform="matrix(0.9943 -0.1062 0.1062 0.9943 299.7108 346.1961)" class="st9 st10 st14">B</text>
		<text transform="matrix(0.9692 -0.2462 0.2462 0.9692 306.8286 345.3774)" class="st9 st10 st12">A</text>
		<text transform="matrix(0.9239 -0.3825 0.3825 0.9239 314.509 343.3102)" class="st9 st10 st11">Z</text>
		<text transform="matrix(0.8605 -0.5095 0.5095 0.8605 321.2021 340.4715)" class="st9 st10 st15">A</text>
		<text transform="matrix(0.7809 -0.6246 0.6246 0.7809 327.9723 336.3291)" class="st9 st10 st16">R</text>
		<path class="st8" d="M299.1,334.8c-23.1,1.2-42.9-16.7-44.1-39.8c-1.2-23.1,16.7-42.9,39.8-44.1c23.1-1.2,42.9,16.7,44.1,39.8
			C340.1,313.8,322.3,333.6,299.1,334.8z"/>
		<text transform="matrix(0.6367 -0.7711 0.7711 0.6367 261.9343 269.3625)" class="st9 st10 st17">W</text>
		<text transform="matrix(0.7655 -0.6435 0.6435 0.7655 267.5403 262.7423)" class="st9 st10 st18">H</text>
		<text transform="matrix(0.861 -0.5087 0.5087 0.861 272.746 258.376)" class="st9 st10 st19">O</text>
		<text transform="matrix(0.9255 -0.3787 0.3787 0.9255 278.9602 254.8183)" class="st9 st10 st17">L</text>
		<text transform="matrix(0.965 -0.2624 0.2624 0.965 283.6114 252.9274)" class="st9 st10 st20">E</text>
		<text transform="matrix(0.9902 -0.1398 0.1398 0.9902 288.6717 251.5726)" class="st9 st10 st17">S</text>
		<text transform="matrix(1 -3.761582e-03 3.761582e-03 1 293.822 250.8237)" class="st9 st10 st17">A</text>
		<text transform="matrix(0.9913 0.1317 -0.1317 0.9913 300.2299 250.8666)" class="st9 st10 st17">L</text>
		<text transform="matrix(0.9676 0.2526 -0.2526 0.9676 305.2244 251.5425)" class="st9 st10 st17">E</text>
		<text transform="matrix(0.9401 0.3409 -0.3409 0.9401 310.2867 252.9482)" class="st9 st10 st17"> </text>
		<text transform="matrix(0.9022 0.4314 -0.4314 0.9022 312.6264 253.7295)" class="st9 st10 st18">B</text>
		<text transform="matrix(0.8262 0.5634 -0.5634 0.8262 317.7889 256.1596)" class="st9 st10 st17">O</text>
		<text transform="matrix(0.7227 0.6911 -0.6911 0.7227 323.6665 260.2071)" class="st9 st10 st21">N</text>
		<text transform="matrix(0.6401 0.7683 -0.7683 0.6401 328.5479 265.0639)" class="st9 st10 st17">I</text>
		<text transform="matrix(0.5598 0.8286 -0.8286 0.5598 330.3408 267.1232)" class="st9 st10 st17">K</text>
		<text transform="matrix(1 0 0 1 219.6989 305.2001)" class="st22 st10 st23">WHOLESALE</text>
	</g>
</g>
</svg>
