<?xml version="1.0" encoding="utf-8"?>
<!-- Generator: Adobe Illustrator 26.0.1, SVG Export Plug-In . SVG Version: 6.00 Build 0)  -->
<svg version="1.2" baseProfile="tiny" id="Layer_1" xmlns="http://www.w3.org/2000/svg" xmlns:xlink="http://www.w3.org/1999/xlink"
	 x="0px" y="0px" viewBox="0 0 600 600" overflow="visible" xml:space="preserve">
<g>
	<path d="M472.12,456.09c-0.4,0-0.8,0-1.2,0c-2.11-0.28-4.22-0.05-6.33-0.12c-108.14,0-216.27,0-324.4,0c-0.43,0-0.87,0-1.3,0
		c-5.15,0.04-10.2-0.58-15.08-2.31c-4.3-1.53-7.77-4.02-9.67-8.37c-0.92-2.1-1.18-4.29-1.17-6.54c0-0.55,0-1.11,0-1.66
		c0-0.87,0-1.73,0-2.6c0-1.25,0-2.5,0-3.74c0-1.33,0-2.66,0-3.98c-0.03-0.59,0.37-0.95,0.74-1.31c8.04-7.83,14.92-16.65,21.8-25.47
		c5.04-6.46,10.31-12.72,15.52-19.04c9.31-11.27,18.56-22.59,27.78-33.93c6.73-8.27,13.52-16.49,20.25-24.77
		c3.01-3.71,6.44-6.89,11.03-8.57c2.46-0.9,5-1.31,7.61-1.49c3.65-0.25,7.26-0.06,10.79,0.92c3.48,0.97,6.61,2.62,9.18,5.2
		c4.44,4.44,8.36,9.34,12.39,14.14c8.35,9.94,16.51,20.04,24.69,30.12c7,8.62,13.98,17.26,20.97,25.89
		c5.28,6.52,10.58,13.02,15.89,19.51c1.58,1.93,3.33,3.66,5.49,4.94c1.28,0.76,1.37,0.7,2.49-0.25c4.56-3.84,8.12-8.57,11.85-13.15
		c9.38-11.52,18.67-23.12,28.14-34.57c4.07-4.92,8.09-9.9,12.26-14.74c4.69-5.45,10.59-8.92,17.8-9.64
		c8.13-0.81,15.22,1.78,21.13,7.42c3.19,3.04,5.75,6.64,8.55,10.02c7.36,8.89,14.61,17.87,21.87,26.85
		c6.83,8.45,13.71,16.85,20.57,25.28c5.85,7.18,12.04,14.09,17.47,21.62c3.16,4.38,6.46,8.63,10.31,12.44
		c1.51,1.49,3.16,2.82,4.83,4.12c0.42,0.33,1.01,0.58,0.9,1.29c-1.41,1.99-3.53,2.94-5.69,3.78c-2.82,1.08-5.79,1.49-8.77,1.85
		C477.9,455.56,475,455.8,472.12,456.09z"/>
	<path fill="#3F3F3F" d="M464.68,456.09c0-0.07-0.01-0.14-0.02-0.21c1.84-0.01,3.68-0.02,5.51-0.03c0.27,0,0.57-0.08,0.75,0.24
		C468.84,456.09,466.76,456.09,464.68,456.09z"/>
	<path fill="#D60000" d="M113.15,426.37c-0.01-0.36-0.03-0.72-0.03-1.08c-0.02-35.54-0.03-71.08-0.04-106.63
		c-0.01-35.3-0.02-70.61-0.04-105.91c0-0.32-0.02-0.64-0.02-0.96c0.66-8.61,5.08-13.36,14.25-15.33c3.8-0.82,7.66-1.17,11.54-1.19
		c7.59-0.05,15.19-0.03,22.78-0.05c9.23-0.02,18.46-0.08,27.7-0.08c94.86,0.02,189.71,0.05,284.57,0.09c5.67,0,11.25,0.7,16.45,3.15
		c4.96,2.34,8.45,5.96,9.52,11.52c0.38,1.97,0.27,3.97,0.25,5.97c-0.05,6.91-0.04,13.82-0.04,20.74c-0.26,0.45-0.72,0.45-1.16,0.48
		c-0.52,0.04-1.04,0.02-1.56,0.02c-20.22,0-40.43,0.01-60.65-0.01c-2.57,0-4.92,0.61-6.92,2.24c-2.73,2.21-3.93,5.07-2.91,8.5
		c0.97,3.28,3.02,5.6,6.6,6.19c1.22,0.2,2.45,0.32,3.7,0.32c20.26-0.01,40.51-0.01,60.77,0c0.73,0,1.53-0.21,2.17,0.4
		c0,5.92-0.01,11.83-0.01,17.75c-0.21,0.5-0.67,0.52-1.1,0.56c-0.52,0.05-1.04,0.03-1.56,0.03c-11.95,0-23.9,0-35.85,0
		c-1.08,0-2.16-0.1-3.24-0.04c-1.27,0.05-2.55,0.01-3.82,0.02c-6.83-0.04-13.66-0.08-20.48,0.02c-3.47,0.05-6.49,2.85-7.37,6.5
		c-0.75,3.09,0.86,6.55,3.84,8.36c1.77,1.08,3.72,1.4,5.74,1.41c5.23,0.04,10.46-0.05,15.69,0.05c0.13,0.01,0.25,0.04,0.37,0.08
		c0.39,0.14,0.66,0.44,0.94,0.72c5.35,5.35,10.71,10.69,16.05,16.06c0.4,0.4,1.16,0.76,0.58,1.56c-0.64,0.33-1.33,0.23-2,0.23
		c-10.78,0.01-21.56,0-32.34,0.01c-4.54,0-7.48,2.16-8.8,6.47c-0.47,1.55-0.42,3.11,0.33,4.55c1.94,3.72,4.97,5.87,9.25,5.99
		c2.67,0.07,5.35,0.06,8.03,0.01c7.82-0.15,15.64,0.38,23.47,0.25c0.36-0.01,0.72,0,1.07,0.09c0.46,0.13,0.56,0.4,0.3,0.8
		c-0.2,0.3-0.46,0.55-0.71,0.81c-5.03,5.03-10.05,10.05-15.08,15.08c-0.31,0.31-0.6,0.65-1.02,0.82c-0.12,0.05-0.25,0.08-0.38,0.09
		c-5.35,0.11-10.7,0-16.06,0.05c-2.67,0.02-5,0.94-6.89,2.86c-2.23,2.26-3.04,4.92-2.18,8.01c0.85,3.09,2.98,4.92,5.97,5.82
		c0.8,0.24,1.64,0.35,2.48,0.35c6.35,0,12.7-0.01,19.05,0c1.28,0.09,2.57,0.22,3.85,0c4.9-0.15,9.8,0.31,14.7,0.25
		c2.27-0.03,4.54-0.21,6.8-0.31c3.8-0.17,7.2-3.57,7.65-7.38c0.48-4.09-1.95-7.79-5.91-9.01c-1.15-0.35-2.34-0.5-3.51-0.72
		c-0.34-0.13-0.39-0.36-0.23-0.66c0.15-0.29,0.38-0.51,0.61-0.74c5.19-5.2,10.39-10.39,15.59-15.58c0.28-0.28,0.55-0.58,0.94-0.73
		c0.13-0.05,0.26-0.07,0.39-0.09c1.19-0.09,2.39-0.05,3.58-0.03c0.51,0.01,1.06-0.02,1.35,0.55c0,35.42,0,70.83,0.01,106.25
		c0,3.03,0.14,6.07-0.45,9.07c-0.64,3.25-2.06,6.09-4.52,8.36c-5.7-4.12-10.33-9.29-14.38-14.97c-5.46-7.65-11.62-14.74-17.56-22
		c-10-12.25-19.97-24.53-29.97-36.78c-6.94-8.51-13.78-17.11-20.91-25.46c-5.86-6.85-13.48-10.13-22.57-9.28
		c-7.27,0.68-13.18,4.17-17.85,9.7c-15.04,17.83-29.6,36.05-44.32,54.15c-2.52,3.1-5.24,6.03-8.3,8.62
		c-0.63,0.53-1.09,0.63-1.88,0.19c-3.52-1.98-5.89-5.1-8.36-8.14c-11.23-13.83-22.45-27.66-33.68-41.49
		c-8.41-10.36-16.78-20.74-25.35-30.96c-3.87-4.62-7.7-9.28-11.83-13.68c-3.84-4.09-8.72-6.1-14.21-6.69
		c-4.28-0.45-8.54-0.23-12.69,1.01c-5.08,1.51-8.78,4.88-12.05,8.89C183.93,341.2,168.62,360,153.2,378.7
		c-8.61,10.45-17.1,20.99-25.52,31.59c-4.2,5.29-8.67,10.35-13.46,15.11C113.88,425.74,113.51,426.05,113.15,426.37z"/>
	<path fill="#404040" d="M500.07,254.75c-0.96-0.02-1.92-0.06-2.88-0.06c-20.07,0.01-40.13,0.01-60.2,0.03
		c-1.32,0-2.64-0.07-3.93-0.34c-3.79-0.8-6.54-4.06-6.96-8.17c-0.34-3.36,1.99-6.96,5.5-8.5c1.67-0.74,3.42-1.02,5.24-1.02
		c20.59,0.02,41.17,0.01,61.76,0.01c0.48,0,0.95-0.07,1.43-0.1c0.52,0.03,1.03,0.09,1.55,0.09c15.35,0,30.7,0.01,46.05,0
		c3.1,0,6,0.59,8.18,2.97c2.49,2.72,3.34,5.89,1.96,9.41c-1.42,3.63-4.3,5.3-8.07,5.59c-1.15,0.09-2.32,0.01-3.47,0.01
		c-15.19,0.01-30.38,0.03-45.56,0.04C500.47,254.72,500.27,254.74,500.07,254.75z"/>
	<path fill="#404040" d="M458.15,272.67c3.79-0.01,7.59-0.04,11.38-0.04c9.7-0.01,19.41,0,29.11-0.01c0.47,0,0.96,0.08,1.42-0.13
		c0.48,0.02,0.95,0.07,1.43,0.07c9.83,0,19.66,0,29.49,0.01c1.07,0,2.17,0.03,3.22,0.23c5.2,0.99,7.84,6.04,5.93,11.24
		c-1.34,3.64-4.19,5.62-8.18,5.62c-10.15,0.01-20.3,0-30.45,0.01c-0.48,0-0.96,0.03-1.43,0.05c-0.3,0.32-0.71,0.36-1.1,0.36
		c-6.96,0-13.93,0.08-20.89-0.03c-0.13-0.01-0.27-0.03-0.4-0.06c-0.56-0.17-0.91-0.62-1.3-1.01c-3.78-3.77-7.56-7.54-11.32-11.32
		c-0.98-0.99-2.08-1.85-3.11-2.79c-0.83-0.76-1.85-1.22-2.93-1.57C458.67,273.2,458.16,273.25,458.15,272.67z"/>
	<path fill="#404040" d="M500.14,325.64c-1.76-0.33-3.54-0.02-5.3-0.18c-0.04-0.76,0.61-1.06,1.01-1.52c1.6-1.82,3.2-3.64,3.8-6.1
		c0.4-1.63,0.14-3.15-0.54-4.64c-0.67-1.46-1.55-2.76-2.66-3.93c-0.43-0.45-1.2-0.89-0.66-1.76c1.42-0.25,2.84-0.27,4.27-0.02
		c2.07,0.07,4.14,0.1,6.21,0.21c2.97,0.16,5.02,1.58,6.63,4.18c3.99,6.47-2.28,13.59-7.75,13.56
		C503.48,325.43,501.81,325.57,500.14,325.64z"/>
	<path fill="#D70000" d="M500.06,307.5c-1.5,0.32-3.02,0-4.53,0.17c-0.1,0.06-0.21,0.07-0.32,0.02c-0.39-0.22-0.67-0.56-0.98-0.87
		c-5.26-5.25-10.51-10.5-15.76-15.76c-0.38-0.38-0.92-0.68-0.91-1.34c7.5,0,15,0,22.5,0C500.06,295.65,500.06,301.57,500.06,307.5z"
		/>
	<path fill="#FEFCEA" d="M196.88,235.95c0.06-6.89,2.19-13.74,7.59-19.34c4.59-4.76,10.32-7.3,16.79-8.11
		c5.63-0.71,11.28-0.71,16.66,1.42c10.64,4.2,16.77,12.24,18.76,23.29c2.12,11.78-4.83,22.28-14.15,27.76
		c-11.78,6.94-27.66,5.45-37.43-3.66c-4.49-4.18-6.89-9.5-7.84-15.51C197,240.11,196.9,238.4,196.88,235.95z"/>
	<path fill="#E34D4D" d="M170.4,351.62c0.42,6-4.65,9.32-9.68,8.8c-1.85-0.19-3.39-1.2-4.68-2.48
		c-11.58-11.54-23.14-23.09-34.68-34.67c-1.86-1.87-3.22-4.07-3.26-6.85c-0.03-2.58,1.03-4.75,2.76-6.56
		c10.29-10.72,20.9-21.13,31.46-31.6c1.79-1.77,3.48-3.71,5.91-4.8c5.09-2.27,10.69,0.13,11.97,5.46c0.87,3.66-0.4,6.89-2.99,9.51
		c-8.02,8.09-16.1,16.12-24.15,24.17c-0.87,0.87-1.81,1.69-2.5,2.74c-0.37,0.56-0.46,1.06-0.09,1.65c0.42,0.68,0.87,1.34,1.45,1.89
		c8.13,7.74,15.93,15.82,23.88,23.75c1.74,1.73,3.47,3.53,4.23,6.01C170.36,349.65,170.43,350.66,170.4,351.62z"/>
	<path fill="#FEFEFE" d="M311.09,342.69c-2.24,0-4.48-0.03-6.71,0.01c-0.93,0.02-1.39-0.38-1.61-1.24c-0.47-1.77-1-3.53-1.47-5.3
		c-0.19-0.72-0.54-1.04-1.33-1.04c-5.15,0.03-10.31,0.03-15.46,0c-0.79,0-1.15,0.31-1.34,1.03c-0.45,1.69-0.99,3.36-1.4,5.07
		c-0.26,1.08-0.78,1.5-1.91,1.48c-4.19-0.05-8.39-0.02-12.59-0.02c-1.95,0-2.14-0.24-1.57-2.06c2.44-7.75,4.89-15.49,7.33-23.24
		c3.05-9.68,6.11-19.36,9.11-29.06c0.37-1.21,1-1.65,2.23-1.64c5.23,0.04,10.47,0.05,15.7,0c1.31-0.01,1.89,0.51,2.28,1.74
		c5.44,17.4,10.93,34.79,16.41,52.19c0.58,1.83,0.39,2.08-1.55,2.08C315.17,342.7,313.13,342.69,311.09,342.69z"/>
	<path fill="#FEFEFE" d="M347.44,338.64c-0.79,0.86-1.3,1.51-1.9,2.06c-2.62,2.37-5.8,2.92-9.16,2.6
		c-5.99-0.58-10.41-3.75-12.89-9.08c-3.76-8.08-3.85-16.43-0.02-24.53c3.27-6.91,10.29-10.26,17.79-8.95
		c2.11,0.37,3.92,1.31,5.37,2.91c0.17,0.19,0.29,0.56,0.63,0.42c0.33-0.14,0.17-0.49,0.17-0.75c0.01-4.91,0.01-9.83,0.01-14.74
		c0-1.61,0.25-1.86,1.89-1.86c3.8-0.01,7.59-0.01,11.39,0c1.57,0,1.79,0.24,1.79,1.8c0,17.46,0,34.92,0,52.37
		c0,1.65-0.14,1.8-1.75,1.8c-3.92,0-7.83-0.02-11.75,0.01c-1.13,0.01-1.63-0.43-1.58-1.56
		C347.46,340.42,347.44,339.68,347.44,338.64z"/>
	<path fill="#404040" d="M469.27,325.68c-0.32-0.01-0.64-0.03-0.96-0.04c-10.38-0.05-20.76-0.11-31.14-0.14
		c-3.59-0.01-6.5-1.27-8.99-3.95c-4.7-5.05-0.73-12.38,4.37-13.61c1.06-0.25,2.12-0.33,3.2-0.33c10.94,0,21.89,0,32.83,0
		c0.47,0,0.96,0.11,1.41-0.13c0.25-0.13,0.44,0.01,0.63,0.14c2.1,2.02,4.14,4.11,6.2,6.17c1.9,1.89,2.06,2.87,0.15,4.74
		c-2.46,2.39-4.78,4.92-7.38,7.17C469.48,325.75,469.37,325.75,469.27,325.68z"/>
	<path fill="#E66363" d="M470.4,307.69c-0.13-0.07-0.27-0.13-0.4-0.2c-0.77-0.8-1.52-1.62-2.31-2.41
		c-4.84-4.86-9.69-9.7-14.53-14.56c-0.25-0.25-0.47-0.53-0.71-0.8c0.44-0.46,1.03-0.39,1.58-0.39c7.22-0.01,14.45-0.01,21.67-0.01
		c0.57,0,1.11,0.07,1.63,0.32c0.08,0.03,0.16,0.05,0.24,0.08c2.32,2.35,4.64,4.71,6.97,7.05c3.6,3.61,7.21,7.21,10.82,10.81
		c-0.32,0.55-0.89,0.49-1.38,0.49c-7.36,0.02-14.73,0.02-22.09,0.01C471.35,308.08,470.86,307.96,470.4,307.69z"/>
	<path fill="#898989" d="M470.4,307.69c7.84-0.01,15.69-0.02,23.53-0.03c0.48,0,0.95-0.05,1.42-0.07c0.06,0.03,0.12,0.06,0.18,0.08
		c0.82,1.23,1.97,2.18,2.78,3.42c2.63,3.98,2.44,7.53-0.69,11.26c-0.9,1.06-1.85,2.08-2.78,3.11c-0.07,0.03-0.15,0.07-0.22,0.1
		c-0.43,0.1-0.84,0.24-1.29,0.26c-7.47,0.19-14.94,0.32-22.41,0.23c-0.51-0.01-1.06,0.05-1.42-0.45c2.27-2.3,4.45-4.67,6.9-6.79
		c0.09-0.08,0.18-0.16,0.26-0.25c1.81-1.9,1.78-2.8-0.11-4.69C474.49,311.83,472.45,309.75,470.4,307.69z"/>
	<path fill="#E66363" d="M469.5,325.6c5.75,0.02,11.5,0.14,17.25,0.01c2.63-0.06,5.25-0.17,7.87-0.04
		c-5.33,5.34-10.67,10.67-16,16.01c-0.34,0.34-0.65,0.7-0.98,1.05c-0.09,0.14-0.21,0.24-0.36,0.31c-0.54,0.17-1.1,0.16-1.66,0.16
		c-7.06,0-14.12,0.01-21.18-0.01c-0.68,0-1.46,0.22-1.98-0.49c5.31-5.3,10.63-10.6,15.94-15.91c0.31-0.31,0.58-0.66,0.87-0.99
		C469.34,325.66,469.42,325.63,469.5,325.6z"/>
	<path fill="#404040" d="M454.46,360.45c-6.63,0-13.26,0.11-19.89-0.05c-4.53-0.11-7.97-3.54-8.46-7.98
		c-0.43-3.87,2.5-8.01,6.56-9.23c1.03-0.31,2.08-0.54,3.17-0.54c5.47,0.01,10.94,0.01,16.42,0.01c-0.11,0.99-0.91,1.54-1.47,2.23
		c-1.66,2.02-2.86,4.21-2.84,6.91c0.03,3.47,2.09,6.49,5.31,7.82C453.72,359.81,454.34,359.79,454.46,360.45z"/>
	<path fill="#404040" d="M452.19,289.63c-6.19,0-12.38,0.35-18.56-0.17c-4.27-0.36-7.8-4.6-7.56-8.77c0.25-4.34,4.11-8.01,8.48-8.02
		c6.63-0.02,13.26,0,19.89,0c-0.07,0.6-0.61,0.58-0.99,0.71c-5.21,1.67-7,8.28-3.89,12.77c0.57,0.82,1.2,1.6,1.91,2.3
		C451.82,288.78,452.25,289.07,452.19,289.63z"/>
	<path fill="#898989" d="M454.46,360.45c-0.83-0.38-1.7-0.67-2.48-1.14c-4.69-2.81-5.74-8.79-2.35-13.41
		c0.82-1.12,1.76-2.16,2.64-3.24c0.07-0.02,0.13-0.05,0.19-0.09c0.52,0.03,1.03,0.08,1.55,0.08c7.79,0.02,15.59,0.03,23.38,0.05
		c0.13,0.59-0.35,0.86-0.67,1.17c-4.62,4.64-9.24,9.29-13.9,13.88c-1.31,1.29-2.78,2.4-4.69,2.69
		C456.9,360.65,455.68,360.57,454.46,360.45z"/>
	<path fill="#898989" d="M452.19,289.63c-0.87-0.98-1.82-1.9-2.61-2.94c-3.18-4.16-2.16-10.26,2.15-12.85
		c0.84-0.5,1.81-0.78,2.72-1.17c1.23,0,2.47,0,3.7,0c3.04,0.77,5.16,2.88,7.27,5c3.97,3.99,7.93,7.98,11.9,11.97
		c-4.34,0.02-8.69,0.04-13.03,0.05c-3.95,0.01-7.89,0.02-11.84,0.03C452.36,289.7,452.28,289.67,452.19,289.63z"/>
	<path fill="#404040" d="M458.12,360.45c2.36-0.91,4.19-2.53,5.95-4.31c4.12-4.18,8.29-8.31,12.44-12.46
		c0.31-0.31,0.59-0.65,0.88-0.97c0.08-0.03,0.17-0.06,0.25-0.09c2.83,0.25,5.52,0.83,7.62,2.97c2.56,2.61,3.14,5.71,1.91,9.04
		c-1.25,3.37-3.8,5.48-7.41,5.77C472.55,360.97,465.33,360.5,458.12,360.45z"/>
	<path fill="#D70000" d="M292.24,304.84c0.64,2.24,1.19,4.17,1.75,6.11c1.1,3.86,2.19,7.73,3.33,11.58c0.22,0.74,0.24,1.06-0.7,1.05
		c-2.95-0.05-5.9-0.03-8.86-0.01c-0.68,0.01-0.95-0.14-0.74-0.88c1.62-5.7,3.22-11.4,4.83-17.1
		C291.89,305.43,291.99,305.3,292.24,304.84z"/>
	<path fill="#D70000" d="M347.43,321.93c0.03,1.9-0.22,3.75-1.03,5.48c-0.86,1.83-2.2,3.01-4.34,3.02
		c-2.19,0.01-3.67-1.16-4.43-3.07c-1.45-3.66-1.44-7.4,0.08-11.06c0.77-1.84,2.2-2.88,4.28-2.9c2.13-0.02,3.53,1.1,4.4,2.93
		C347.24,318.1,347.44,320,347.43,321.93z"/>
</g>
</svg>
