<?xml version="1.0" encoding="utf-8"?>
<!-- Generator: Adobe Illustrator 26.0.1, SVG Export Plug-In . SVG Version: 6.00 Build 0)  -->
<svg version="1.2" baseProfile="tiny" id="Layer_1" xmlns="http://www.w3.org/2000/svg" xmlns:xlink="http://www.w3.org/1999/xlink"
	 x="0px" y="0px" viewBox="0 0 600 600" overflow="visible" xml:space="preserve">
<g>
	<path d="M317.4,289l-2.21,2.57c1.42,2.7,2.23,5.78,2.23,9.05c0,10.57-8.42,19.18-18.77,19.18s-18.77-8.61-18.77-19.18
		c0-10.58,8.42-19.18,18.77-19.18c4.88,0,9.32,1.91,12.65,5.03c0.52,0.49,1.02,1,1.48,1.54c0.44,0.52,0.86,1.07,1.25,1.63l2.14-2.49
		c-0.32-0.44-0.65-0.86-1-1.27c-0.46-0.54-0.95-1.06-1.46-1.55c-3.93-3.8-9.23-6.13-15.06-6.13c-12.1,0-21.93,10.06-21.93,22.42
		c0,12.36,9.84,22.41,21.93,22.41c12.1,0,21.93-10.06,21.93-22.41C320.59,296.37,319.43,292.39,317.4,289z"/>
	<polygon fill="#FC1D37" stroke="#000000" stroke-width="0.5" stroke-miterlimit="10" points="324,278.03 316.17,287.15 
		314.04,289.64 298.65,307.58 287.82,292.86 298.65,300.58 312.79,288.01 315.17,285.88 	"/>
	<g>
		<g>
			<line fill="#EFEFEF" stroke="#FF0000" stroke-miterlimit="10" x1="298.65" y1="318.4" x2="298.65" y2="316.27"/>
		</g>
		<g>
			<line fill="#EFEFEF" stroke="#FF0000" stroke-miterlimit="10" x1="289.95" y1="316.01" x2="290.99" y2="314.18"/>
		</g>
		<g>
			<line fill="#EFEFEF" stroke="#FF0000" stroke-miterlimit="10" x1="283.58" y1="309.51" x2="285.38" y2="308.44"/>
		</g>
		<g>
			<line fill="#EFEFEF" stroke="#FF0000" stroke-miterlimit="10" x1="281.25" y1="300.62" x2="283.33" y2="300.62"/>
		</g>
		<g>
			<line fill="#EFEFEF" stroke="#FF0000" stroke-miterlimit="10" x1="283.58" y1="291.73" x2="285.38" y2="292.79"/>
		</g>
		<g>
			<line fill="#EFEFEF" stroke="#FF0000" stroke-miterlimit="10" x1="289.95" y1="285.22" x2="290.99" y2="287.06"/>
		</g>
		<g>
			<line fill="#EFEFEF" stroke="#FF0000" stroke-miterlimit="10" x1="298.65" y1="282.84" x2="298.65" y2="284.96"/>
		</g>
		<g>
			<line fill="#EFEFEF" stroke="#FF0000" stroke-miterlimit="10" x1="307.35" y1="285.22" x2="306.31" y2="287.06"/>
		</g>
		<g>
			<line fill="#EFEFEF" stroke="#FF0000" stroke-miterlimit="10" x1="316.05" y1="300.62" x2="313.97" y2="300.62"/>
		</g>
		<g>
			<line fill="#EFEFEF" stroke="#FF0000" stroke-miterlimit="10" x1="313.72" y1="309.51" x2="311.92" y2="308.44"/>
		</g>
		<g>
			<line fill="#EFEFEF" stroke="#FF0000" stroke-miterlimit="10" x1="307.35" y1="316.01" x2="306.31" y2="314.17"/>
		</g>
	</g>
</g>
</svg>
