<?xml version="1.0" encoding="utf-8"?>
<!-- Generator: Adobe Illustrator 26.0.1, SVG Export Plug-In . SVG Version: 6.00 Build 0)  -->
<svg version="1.2" baseProfile="tiny" id="Layer_1" xmlns="http://www.w3.org/2000/svg" xmlns:xlink="http://www.w3.org/1999/xlink"
	 x="0px" y="0px" viewBox="0 0 600 600" overflow="visible" xml:space="preserve">
<g>
	<ellipse id="XMLID_24453_" fill="#FDE986" cx="299.49" cy="298.54" rx="11.4" ry="8.14"/>
	<g id="XMLID_24126_">
		<path id="XMLID_24127_" d="M293.69,313.13c-2.16-2.1-3.62-4.54-5.7-6.69c-1.22-1.26-2.53-2.39-3.5-3.77
			c-1.08-1.54-1.8-3.21-2.26-4.9c-0.84-3.06-0.76-6.39,1.03-9.28c1.63-2.63,4.59-4.71,8.03-6.16c3.8-1.61,8.05-2.45,12.45-1.95
			c4.11,0.47,8.01,1.99,10.63,4.32c2.88,2.55,3.91,6.08,3.98,9.29c0.07,3.34-1,6.73-2.98,9.75c-1.25,1.92-3.18,3.55-4.43,5.46
			c-0.47,0.73-0.93,1.46-1.43,2.17c-0.34,0.49-0.76,1.33-1.43,1.65c-0.5,0.24-0.03,0.82,0.47,0.58c1-0.48,1.54-1.54,2.04-2.28
			c0.6-0.89,1.09-1.84,1.8-2.7c1.33-1.59,2.82-3.07,3.92-4.76c0.93-1.43,1.62-2.95,2.13-4.48c1.91-5.83,0.91-13.14-6.14-17.07
			c-3.17-1.77-7.18-2.72-11.19-2.76c-4.13-0.05-8.16,1.15-11.55,2.76c-3.18,1.52-5.79,3.63-7.3,6.15c-1.64,2.74-1.72,5.79-1.13,8.7
			c0.34,1.69,1,3.37,1.96,4.94c0.98,1.61,2.29,2.99,3.78,4.39c2.33,2.18,3.74,4.79,6.01,6.99
			C293.24,313.82,294.05,313.48,293.69,313.13L293.69,313.13z"/>
	</g>
	<g id="XMLID_24124_">
		<path id="XMLID_24125_" d="M292.07,312.86c-0.14-0.06-0.27-0.11-0.41-0.17c-0.15,0.14-0.3,0.28-0.45,0.43
			c0.91,0.02,0.3-0.1,0.1-0.18c-0.22-0.09-0.36-0.08-0.09-0.04c0.35,0.06,0.69,0.2,0.99,0.34c0.9,0.39,1.74,0.64,2.79,0.74
			c2.96,0.26,6.03,0.09,9,0.06c2.45-0.02,5.12,0.06,7.42-0.64c1.32-0.4,1.7-1.87-0.18-1.71c-0.59,0.05-0.6,0.72,0,0.67
			c0.15-0.02,0.31-0.03,0.46-0.02c-0.05-0.08-0.09-0.07-0.11,0.05c-0.11,0.15-0.31,0.27-0.51,0.37c-0.56,0.27-1.45,0.33-2.1,0.41
			c-1.65,0.21-3.32,0.18-4.99,0.19c-1.85,0.01-3.69,0.07-5.54,0.05c-1.43-0.01-3.04,0.04-4.43-0.26c-0.98-0.21-1.71-0.76-2.72-0.93
			c-0.71-0.12-1.37,0.24-1.17,0.79c0.15,0.4,1.29,0.89,1.84,0.66c0.33-0.14,0.41-0.48,0.31-0.72c-0.14-0.37-0.61-0.5-1.09-0.51
			c-0.3-0.01-0.55,0.22-0.45,0.43c0.21,0.45,0.65,0.67,1.32,0.66C292.68,313.52,292.68,312.85,292.07,312.86L292.07,312.86z"/>
	</g>
	<g id="XMLID_24122_">
		<path id="XMLID_24123_" fill="#FF0000" d="M310.28,311.97c-0.39,0.35-0.67,0.84-0.43,1.29c0.12,0.23,0.52,0.34,0.79,0.15
			c0.6-0.43,0.89-1.07,0.32-1.58c-0.14-0.12-0.4-0.11-0.57-0.05c-0.76,0.26-1.24,0.92-0.96,1.51c0.08,0.17,0.32,0.29,0.58,0.23
			c1-0.21,1.15-1.16,0.23-1.52c-0.13-0.05-0.34-0.07-0.47,0c-0.56,0.31-0.82,0.72-0.67,1.22c0.05,0.16,0.25,0.23,0.45,0.25
			c0.54,0.04,0.91-0.16,1.15-0.48c0.06-0.08,0.14-0.26,0.26-0.28c0.27-0.06,0.57-0.05,0.84-0.1c0.59-0.1,0.34-0.75-0.25-0.65
			c-0.46,0.08-0.92,0.05-1.29,0.29c-0.17,0.11-0.27,0.26-0.37,0.4c-0.11,0.15-0.11,0.17-0.34,0.15c0.15,0.08,0.3,0.16,0.45,0.25
			c-0.05-0.18,0.03-0.35,0.24-0.46c-0.16,0-0.32,0-0.47,0c0.19,0.07,0.23,0.24-0.01,0.29c0.19,0.08,0.39,0.16,0.58,0.23
			c-0.15-0.32,0.13-0.62,0.53-0.75c-0.19-0.02-0.38-0.04-0.57-0.05c0.21,0.19-0.15,0.5-0.32,0.63c0.26,0.05,0.52,0.1,0.79,0.15
			c-0.11-0.21-0.01-0.46,0.19-0.63C311.32,312.11,310.66,311.63,310.28,311.97L310.28,311.97z"/>
	</g>
	<g id="XMLID_24120_">
		<path id="XMLID_24121_" d="M291.3,313.72c1.47,0.71,3.47,0.66,5.16,0.65c2.76-0.01,5.52-0.19,8.28-0.01
			c2.12,0.14,4.1,0.19,6.07-0.48c0.56-0.19,1.12-0.64,0.93-1.12c-0.19-0.49-0.96-0.56-1.55-0.51c-0.59,0.05-0.6,0.72,0,0.67
			c0.33-0.03,0.85,0.05,0.33,0.3c-0.27,0.13-0.6,0.21-0.9,0.28c-0.75,0.19-1.5,0.28-2.29,0.3c-1.86,0.05-3.74-0.21-5.61-0.2
			c-1.94,0-3.88,0.1-5.82,0.1c-1.37,0-2.95,0.01-4.13-0.56C291.27,312.89,290.8,313.47,291.3,313.72L291.3,313.72z"/>
	</g>
	<g id="XMLID_24118_">
		<path id="XMLID_24119_" fill="#FF0000" d="M291.25,312.8c0.19-0.08,0.41-0.23,0.57-0.27c0.55-0.16,0.36-0.73-0.25-0.65
			c-0.18,0.03-0.37,0.05-0.55,0.09c0.12,0.2,0.24,0.41,0.36,0.61c0.1-0.03,0.21-0.06,0.32-0.08c0.06-0.01,0.06-0.01,0.02,0
			c0.03,0,0.06,0,0.09,0c0.06,0,0.05,0-0.01,0c0.05,0.01,0.05,0.01-0.01-0.01c0.1,0.03-0.06-0.05,0.01,0.01
			c-0.06-0.04-0.05-0.08-0.03,0c-0.02-0.06,0,0.07,0,0.09c0,0.04-0.02,0.1-0.04,0.14c-0.14,0.42,0.77,0.6,0.91,0.18
			c0.12-0.36,0.12-0.75-0.35-0.99c-0.41-0.2-0.98-0.05-1.38,0.08c-0.5,0.16-0.14,0.7,0.36,0.61c0.18-0.03,0.36-0.06,0.55-0.09
			c-0.08-0.22-0.17-0.43-0.25-0.65c-0.3,0.09-0.52,0.23-0.8,0.34C290.24,312.44,290.72,313.02,291.25,312.8L291.25,312.8z"/>
	</g>
	<g id="XMLID_24116_">
		<path id="XMLID_24117_" fill="#FF0000" d="M291.73,312.96c-0.05,0.16-0.05,0.31,0.05,0.46c0.1,0.13,0.29,0.22,0.49,0.26
			c0.25,0.05,0.51-0.06,0.58-0.23c0.07-0.18-0.08-0.37-0.33-0.41c-0.02,0-0.03-0.01-0.05-0.01c0.12,0.03,0.07,0.02,0.04,0.01
			c0.07,0.04,0.08,0.05,0.05,0.03c0.02,0.02,0.03,0.03,0.05,0.05c-0.02-0.03-0.02-0.01,0.02,0.04c0-0.01-0.01-0.02-0.01-0.03
			c0.03,0.09,0.01,0.07,0.01,0.03c0-0.01,0-0.02,0-0.03c-0.01,0.11-0.01,0.05,0,0.02c0.06-0.18-0.08-0.36-0.33-0.41
			C292.06,312.67,291.79,312.78,291.73,312.96L291.73,312.96z"/>
	</g>
	<g id="XMLID_24114_">
		<path id="XMLID_24115_" fill="#FF0000" d="M288.83,301.86c0.19,1.86,1.65,3.49,2.87,5.08c1.54,2.03,2.75,4.26,3.54,6.5
			c0.15,0.42,1.06,0.24,0.91-0.18c-0.73-2.05-1.84-4.08-3.14-5.98c-1.19-1.74-3.04-3.44-3.24-5.43
			C289.73,301.43,288.79,301.42,288.83,301.86L288.83,301.86z"/>
	</g>
	<g id="XMLID_24112_">
		<path id="XMLID_24113_" fill="#FF0000" d="M308.78,301.99c-2.07,3.77-4.29,7.54-5.03,11.58c-0.08,0.43,0.86,0.42,0.94,0
			c0.73-3.97,2.96-7.7,4.99-11.4C309.9,301.77,308.99,301.6,308.78,301.99L308.78,301.99z"/>
	</g>
	<g id="XMLID_24106_">
		<path id="XMLID_24107_" fill="#FF0000" d="M287.6,301.22c0.35,0.54,1.39,0.91,2.21,0.83c1.01-0.1,1.54-0.71,1.79-1.36
			c0.16-0.43,0.41-1.19-0.1-1.55c-0.39-0.28-0.84-0.06-0.92,0.26c-0.25,0.92,0.74,2.19,2.18,1.7c1.22-0.42,2.14-2.08,1.18-2.87
			c-0.11-0.09-0.3-0.05-0.39,0.04c-0.6,0.59-0.44,2.65,1.11,2.39c1.27-0.21,2.31-1.79,1.75-2.63c-0.06-0.09-0.23-0.11-0.34-0.06
			c-1.43,0.54-0.31,3.07,1.53,2.26c0.9-0.4,1.55-1.35,1.66-2.08c0.12-0.8-1.1-0.75-1.44-0.11c-0.45,0.85-0.55,2.33,0.8,2.8
			c1.23,0.42,2.5-0.75,3.08-1.35c0.3-0.31,1.26-1.72-0.06-1.58c-1.31,0.14-1.67,1.27-1.41,2.05c0.79,2.4,5.51-0.4,5.24-1.92
			c-0.01-0.08-0.07-0.15-0.18-0.17c-1.25-0.2-1.62,1.05-1.73,1.69c-0.13,0.72,0.65,2.09,1.97,1.53c1.02-0.44,1.79-1.36,2.22-2.14
			c0.45-0.83-0.74-0.68-1.31-0.27c-0.59,0.43-1.34,1.62-0.64,2.16c1.1,0.85,2.62-0.57,3.35-1.05c0.44-0.29,0.83-0.6,0.71-1.05
			c-0.08-0.29-0.56-0.29-0.85-0.19c-1.02,0.39-1.82,1.18-1.57,2.03c0.37,1.25,3.02,0.59,3.87,0.09c0.17-0.1,0.03-0.31-0.18-0.3
			c-1.12,0.03-2.08,0.84-2.19,1.61c-0.11,0.75,0.57,1.02,1.47,0.66c0.28-0.11,0.03-0.42-0.25-0.31c-0.85,0.34-0.79-0.26-0.62-0.65
			c0.2-0.46,0.89-0.94,1.58-0.96c-0.06-0.1-0.12-0.2-0.18-0.3c-0.65,0.37-1.54,0.6-2.37,0.48c-1.15-0.17-0.66-1.17-0.13-1.59
			c0.24-0.18,0.52-0.38,0.85-0.47c0,0.09,0.01,0.18,0.01,0.27c-0.1,0.11-0.23,0.22-0.36,0.31c-0.19,0.14-0.4,0.27-0.6,0.39
			c-0.49,0.31-0.86,0.7-1.49,0.88c-0.75,0.22-0.88-0.35-0.79-0.71c0.12-0.53,0.57-1.16,1.32-1.34c-0.15,0.04-0.34,0.53-0.42,0.65
			c-0.14,0.19-0.3,0.38-0.47,0.56c-0.3,0.31-0.63,0.62-1.05,0.85c-0.87,0.48-1.37-0.4-1.41-0.87c-0.04-0.41,0.26-1.77,1.12-1.63
			c-0.06-0.06-0.12-0.11-0.18-0.17c0.15,0.81-1.02,1.54-1.8,2.01c-0.43,0.26-1,0.58-1.61,0.52c-0.75-0.07-0.94-0.8-0.94-1.23
			c0-0.4,0.29-0.76,0.75-0.99c0.75-0.37,0.26,0.53,0.08,0.75c-0.48,0.58-1.36,1.44-2.4,1.46c-1.43,0.02-1.09-1.94-0.7-2.5
			c0.14-0.03,0.28-0.06,0.42-0.09c0,0.08-0.01,0.15-0.03,0.23c-0.04,0.15-0.11,0.29-0.18,0.43c-0.13,0.27-0.31,0.53-0.51,0.78
			c-1.48,1.81-2.83-0.72-1.74-1.13c-0.11-0.02-0.23-0.04-0.34-0.06c0.39,0.58-0.38,1.52-0.94,1.92c-1.15,0.82-1.61-1.15-1.07-1.68
			c-0.13,0.01-0.26,0.02-0.39,0.04c0.65,0.53,0,1.5-0.51,1.96c-0.29,0.27-0.72,0.49-1.22,0.41c-0.44-0.07-0.62-0.56-0.72-0.82
			c-0.05-0.13-0.07-0.27-0.09-0.4c-0.02-0.23,0.15-0.35,0.22,0.03c0.05,0.31-0.05,0.63-0.15,0.93c-0.17,0.5-0.53,0.94-1.25,1.09
			c-0.64,0.14-1.57-0.24-1.84-0.65C287.89,300.84,287.46,301.02,287.6,301.22L287.6,301.22z"/>
	</g>
	<g id="XMLID_24104_">
		<path id="XMLID_24105_" fill="#FF0000" d="M290.22,314.24c0.44-0.34,0.87-0.77,1.44-1c0.28-0.11,0.03-0.42-0.25-0.31
			c-0.61,0.24-1.07,0.69-1.54,1.06C289.66,314.15,290.01,314.4,290.22,314.24L290.22,314.24z"/>
	</g>
	<g id="XMLID_24102_">
		<path id="XMLID_24103_" d="M290.06,314.7c0.41-0.04,0.76-0.32,1.04-0.51c0.39-0.28,0.74-0.6,1.15-0.86
			c0.24-0.15-0.11-0.4-0.35-0.25c-0.33,0.21-0.62,0.46-0.93,0.7c-0.26,0.2-0.63,0.55-1.04,0.59
			C289.61,314.39,289.75,314.73,290.06,314.7L290.06,314.7z"/>
	</g>
	<g id="XMLID_24100_">
		<path id="XMLID_24101_" d="M290.44,315.26c0.75-0.55,1.41-1.15,2.13-1.71c0.21-0.17-0.14-0.42-0.35-0.25
			c-0.72,0.57-1.38,1.17-2.13,1.71C289.86,315.18,290.21,315.43,290.44,315.26L290.44,315.26z"/>
	</g>
	<g id="XMLID_24098_">
		<path id="XMLID_24099_" d="M291.15,315.56c0.02-0.34,0.63-0.72,0.93-0.94c0.38-0.29,0.79-0.57,1.24-0.81
			c0.26-0.13,0.01-0.44-0.25-0.31c-0.56,0.29-1.05,0.64-1.52,1c-0.36,0.28-0.87,0.66-0.9,1.06
			C290.64,315.78,291.13,315.78,291.15,315.56L291.15,315.56z"/>
	</g>
	<g id="XMLID_24096_">
		<path id="XMLID_24097_" d="M291.71,315.85c0.32-0.79,1.39-1.35,2.11-1.95c0.2-0.17-0.14-0.41-0.34-0.24
			c-0.78,0.66-1.89,1.25-2.23,2.11C291.16,315.97,291.63,316.06,291.71,315.85L291.71,315.85z"/>
	</g>
	<g id="XMLID_24094_">
		<path id="XMLID_24095_" d="M292.26,316c0.23-0.28,0.55-0.52,0.83-0.77c0.48-0.43,0.84-0.92,1.45-1.26
			c0.24-0.14-0.1-0.38-0.34-0.24c-0.61,0.34-0.98,0.83-1.45,1.26c-0.3,0.28-0.66,0.54-0.91,0.84
			C291.68,316.02,292.1,316.19,292.26,316L292.26,316z"/>
	</g>
	<g id="XMLID_24092_">
		<path id="XMLID_24093_" d="M293.08,316.11c0.64-0.75,1.43-1.42,2.18-2.11c0.19-0.17-0.15-0.42-0.34-0.24
			c-0.78,0.71-1.6,1.4-2.26,2.18C292.5,316.13,292.92,316.3,293.08,316.11L293.08,316.11z"/>
	</g>
	<g id="XMLID_24090_">
		<path id="XMLID_24091_" d="M293.55,316.26c0.65-0.85,1.54-1.58,2.39-2.33c0.2-0.17-0.14-0.41-0.34-0.24
			c-0.88,0.77-1.8,1.52-2.47,2.4C292.98,316.28,293.4,316.45,293.55,316.26L293.55,316.26z"/>
	</g>
	<g id="XMLID_24088_">
		<path id="XMLID_24089_" d="M294.17,316.44c0.29-0.4,0.72-0.72,1.09-1.08c0.47-0.46,0.8-0.98,1.3-1.43
			c0.19-0.17-0.15-0.42-0.34-0.24c-0.42,0.38-0.74,0.81-1.11,1.22c-0.41,0.48-1,0.85-1.36,1.36
			C293.61,316.47,294.03,316.64,294.17,316.44L294.17,316.44z"/>
	</g>
	<g id="XMLID_24086_">
		<path id="XMLID_24087_" d="M294.97,316.36c0.2-0.46,0.73-0.83,1.13-1.22c0.49-0.48,0.96-0.97,1.55-1.4
			c0.22-0.16-0.12-0.4-0.34-0.24c-0.56,0.4-1.02,0.86-1.48,1.32c-0.46,0.46-1.08,0.9-1.32,1.45
			C294.41,316.49,294.88,316.58,294.97,316.36L294.97,316.36z"/>
	</g>
	<g id="XMLID_24084_">
		<path id="XMLID_24085_" d="M295.95,316.25c0.34-0.94,1.55-1.56,2.09-2.43c0.12-0.2-0.29-0.38-0.42-0.17
			c-0.56,0.91-1.79,1.53-2.14,2.51C295.41,316.38,295.87,316.47,295.95,316.25L295.95,316.25z"/>
	</g>
	<g id="XMLID_24082_">
		<path id="XMLID_24083_" d="M296.44,316.6c0.44,0.01,0.81-0.67,0.98-0.87c0.25-0.3,0.49-0.6,0.75-0.89
			c0.14-0.16,0.38-0.51,0.65-0.57c0.3-0.06,0.17-0.39-0.13-0.33c-0.56,0.12-0.94,0.72-1.22,1.04c-0.23,0.27-0.44,0.53-0.67,0.8
			c-0.09,0.11-0.18,0.21-0.28,0.32c-0.08,0.09-0.24,0.15-0.1,0.16C296.13,316.25,296.13,316.59,296.44,316.6L296.44,316.6z"/>
	</g>
	<g id="XMLID_24080_">
		<path id="XMLID_24081_" d="M297.51,316.54c-0.02-0.4,0.68-0.78,0.95-1.12c0.3-0.37,0.57-0.9,1.1-1.13
			c0.26-0.12,0.02-0.42-0.24-0.3c-0.61,0.28-0.93,0.82-1.27,1.26c-0.33,0.41-1.04,0.78-1.02,1.29
			C297.04,316.76,297.52,316.76,297.51,316.54L297.51,316.54z"/>
	</g>
	<g id="XMLID_24078_">
		<path id="XMLID_24079_" d="M298.39,316.54c0.07-0.42,0.57-0.76,0.89-1.09c0.35-0.37,0.67-0.75,1.1-1.07
			c0.21-0.16-0.13-0.4-0.34-0.24c-0.51,0.38-0.88,0.83-1.3,1.27c-0.36,0.37-0.77,0.68-0.84,1.14
			C297.87,316.76,298.35,316.76,298.39,316.54L298.39,316.54z"/>
	</g>
	<g id="XMLID_24076_">
		<path id="XMLID_24077_" d="M298.74,316.7c0.18-0.48,0.71-0.85,1.12-1.24c0.43-0.4,0.71-0.89,1.24-1.23
			c0.23-0.15-0.11-0.39-0.34-0.24c-0.6,0.38-0.91,0.93-1.4,1.38c-0.42,0.39-0.91,0.76-1.09,1.25
			C298.2,316.82,298.66,316.91,298.74,316.7L298.74,316.7z"/>
	</g>
	<g id="XMLID_24074_">
		<path id="XMLID_24075_" d="M299.83,316.36c0.12-0.42,0.62-0.81,0.93-1.17c0.34-0.4,0.66-0.8,1.01-1.19
			c0.17-0.19-0.25-0.36-0.42-0.17c-0.39,0.44-0.76,0.89-1.14,1.33c-0.31,0.36-0.73,0.69-0.85,1.11
			C299.3,316.49,299.76,316.58,299.83,316.36L299.83,316.36z"/>
	</g>
	<g id="XMLID_24072_">
		<path id="XMLID_24073_" d="M300.65,316.29c0.09-0.38,0.59-0.67,0.88-0.99c0.37-0.4,0.7-0.82,1.06-1.22
			c0.16-0.19-0.25-0.36-0.42-0.17c-0.39,0.45-0.77,0.91-1.18,1.36c-0.29,0.31-0.72,0.55-0.81,0.94
			C300.14,316.42,300.6,316.51,300.65,316.29L300.65,316.29z"/>
	</g>
	<g id="XMLID_24070_">
		<path id="XMLID_24071_" d="M301.35,316.41c0.33-0.44,0.74-0.85,1.13-1.26c0.22-0.24,0.45-0.48,0.68-0.72
			c0.09-0.09,0.34-0.38,0.38-0.4c0.26-0.12,0.02-0.41-0.24-0.3c-0.44,0.2-0.79,0.77-1.07,1.07c-0.44,0.47-0.91,0.93-1.29,1.43
			C300.79,316.43,301.21,316.6,301.35,316.41L301.35,316.41z"/>
	</g>
	<g id="XMLID_24068_">
		<path id="XMLID_24069_" d="M302.41,316.48c0.18-0.44,0.63-0.8,0.93-1.2c0.36-0.47,0.71-0.95,1.06-1.42
			c0.14-0.2-0.27-0.37-0.42-0.17c-0.35,0.48-0.7,0.95-1.06,1.42c-0.33,0.43-0.79,0.8-0.98,1.28
			C301.86,316.6,302.32,316.69,302.41,316.48L302.41,316.48z"/>
	</g>
	<g id="XMLID_24066_">
		<path id="XMLID_24067_" d="M303.06,316.37c0.62-0.72,1.11-1.5,1.65-2.25c0.14-0.2-0.27-0.37-0.42-0.17
			c-0.54,0.75-1.03,1.53-1.65,2.25C302.48,316.39,302.9,316.56,303.06,316.37L303.06,316.37z"/>
	</g>
	<g id="XMLID_24064_">
		<path id="XMLID_24065_" d="M303.81,316.59c0.25-0.76,0.93-1.38,1.42-2.06c0.14-0.2-0.27-0.37-0.42-0.17
			c-0.51,0.71-1.21,1.36-1.47,2.15C303.27,316.71,303.74,316.8,303.81,316.59L303.81,316.59z"/>
	</g>
	<g id="XMLID_24062_">
		<path id="XMLID_24063_" d="M304.44,316.47c0.14-0.84,0.88-1.57,1.41-2.31c0.14-0.2-0.27-0.37-0.42-0.17
			c-0.58,0.8-1.33,1.57-1.48,2.49C303.92,316.69,304.4,316.68,304.44,316.47L304.44,316.47z"/>
	</g>
	<g id="XMLID_24060_">
		<path id="XMLID_24061_" d="M305.42,316.06c0.01-0.28,0.36-0.57,0.51-0.82c0.21-0.36,0.31-0.76,0.65-1.08
			c0.19-0.18-0.23-0.35-0.42-0.17c-0.37,0.35-0.46,0.8-0.72,1.19c-0.18,0.28-0.49,0.57-0.51,0.89
			C304.93,316.28,305.41,316.28,305.42,316.06L305.42,316.06z"/>
	</g>
	<g id="XMLID_24058_">
		<path id="XMLID_24059_" d="M305.88,316.36c0.12-0.77,0.92-1.4,1.36-2.09c0.13-0.2-0.29-0.37-0.42-0.17
			c-0.49,0.76-1.29,1.41-1.43,2.26C305.37,316.58,305.85,316.57,305.88,316.36L305.88,316.36z"/>
	</g>
	<g id="XMLID_24056_">
		<path id="XMLID_24057_" d="M308.07,314.4c0.08-0.01,0.14-0.03,0.21-0.06c-0.12-0.05-0.25-0.1-0.37-0.15
			c-0.08,0.67-0.74,1.22-0.79,1.9c-0.02,0.23,0.48,0.23,0.5,0c0.05-0.67,0.71-1.23,0.79-1.9c0.02-0.15-0.22-0.2-0.37-0.15
			c-0.03,0.01-0.06,0.01-0.1,0.02C307.63,314.11,307.76,314.45,308.07,314.4L308.07,314.4z"/>
	</g>
	<g id="XMLID_24054_">
		<path id="XMLID_24055_" d="M308.83,313.72c-0.31,0.81-0.8,1.58-1.07,2.4c-0.07,0.22,0.41,0.32,0.48,0.09
			c0.27-0.82,0.75-1.59,1.07-2.4C309.39,313.59,308.92,313.5,308.83,313.72L308.83,313.72z"/>
	</g>
	<g id="XMLID_24052_">
		<path id="XMLID_24053_" d="M309.36,313.78c0.07,0.36-0.18,0.77-0.34,1.1c-0.17,0.35-0.36,0.69-0.51,1.05
			c-0.09,0.22,0.39,0.31,0.48,0.09c0.3-0.73,1.01-1.55,0.85-2.34C309.8,313.46,309.32,313.55,309.36,313.78L309.36,313.78z"/>
	</g>
	<g id="XMLID_24050_">
		<path id="XMLID_24051_" d="M310.03,313.56c-0.41,0.64-0.54,1.33-0.72,2.02c-0.06,0.22,0.42,0.32,0.48,0.09
			c0.17-0.65,0.28-1.33,0.67-1.94C310.59,313.54,310.16,313.36,310.03,313.56L310.03,313.56z"/>
	</g>
	<g id="XMLID_24048_">
		<path id="XMLID_24049_" d="M310.69,312.82c0,0.47-0.08,0.91-0.16,1.38c-0.08,0.48-0.08,0.97-0.31,1.43
			c-0.11,0.22,0.37,0.31,0.48,0.09c0.21-0.44,0.24-0.89,0.3-1.35c0.06-0.52,0.19-1.03,0.19-1.56
			C311.18,312.59,310.69,312.59,310.69,312.82L310.69,312.82z"/>
	</g>
	<g id="XMLID_24046_">
		<path id="XMLID_24047_" d="M311.36,313.02c0.27,0.36,0.13,0.89,0.05,1.27c-0.07,0.37-0.18,0.74-0.29,1.1
			c-0.07,0.22,0.41,0.32,0.48,0.09c0.22-0.77,0.75-1.91,0.19-2.65C311.64,312.64,311.21,312.82,311.36,313.02L311.36,313.02z"/>
	</g>
	<g id="XMLID_24044_">
		<path id="XMLID_24045_" d="M311.97,312.55c-0.01,0.89,0.15,1.77,0.16,2.66c0,0.23,0.5,0.23,0.5,0c-0.01-0.89-0.17-1.77-0.16-2.66
			C312.46,312.32,311.97,312.32,311.97,312.55L311.97,312.55z"/>
	</g>
	<g id="XMLID_24042_">
		<path id="XMLID_24043_" fill="#FF0000" d="M312.39,313.2c0,0.2,0,0.41,0,0.61c0,0.23,0.5,0.23,0.5,0c0-0.2,0-0.41,0-0.61
			C312.89,312.97,312.39,312.97,312.39,313.2L312.39,313.2z"/>
	</g>
	<g id="XMLID_24040_">
		<path id="XMLID_24041_" fill="#FF0000" d="M295.93,317.53c0.37-0.04,0.75-0.04,1.12-0.09c0.6-0.07,0.37-0.65-0.13-0.7
			c-0.56-0.05-1.1-0.05-1.66-0.02c-0.43,0.02-0.65,0.37-0.35,0.6c0.38,0.3,0.84,0.44,1.34,0.2c0.24-0.12,0.36-0.4,0.1-0.56
			c-0.59-0.34-1.44-0.54-2.19-0.35c-0.32,0.08-0.44,0.3-0.3,0.52c0.2,0.3,0.56,0.43,1.02,0.39c0.26-0.02,0.51-0.14,0.5-0.35
			c-0.03-0.48-0.59-0.74-1.25-0.69c-0.29,0.02-0.6,0.21-0.48,0.45c0.24,0.47,0.72,0.78,1.45,0.78c0.21,0,0.43-0.11,0.48-0.26
			c0.2-0.69-0.8-0.93-1.54-1.11c-0.36-0.09-0.7,0.19-0.61,0.44c0.32,0.85,1.48,1.56,2.47,2.02c0.36,0.17,0.85-0.11,0.73-0.4
			c-0.22-0.51-0.84-0.83-1.44-1.11c-0.36-0.17-0.87,0.11-0.73,0.4c0.21,0.44,0.55,0.78,1.06,1.08c0.2-0.19,0.4-0.37,0.6-0.56
			c-0.26-0.12-0.47-0.27-0.74-0.37c-0.24-0.09-0.54-0.05-0.68,0.13c-0.53,0.68,0.55,1.47,1.4,0.87c0.85-0.6-0.38-1.66-1.16-1.93
			c-0.18-0.06-0.46-0.07-0.6,0.06c-0.93,0.85,1.11,2.23,2.32,2.1c1.48-0.15,1.2-2.24-0.3-2.15c-0.24,0.01-0.39,0.1-0.48,0.26
			c-0.41,0.75,0.48,2.65,1.96,2.06c1.19-0.47,0.22-2.34-0.76-2.64c-0.27-0.09-0.5-0.04-0.68,0.13c-0.68,0.63,0.04,2.67,1.5,2.32
			c1.28-0.31,1.37-2.14,0.05-2.47c-0.79-0.2-1.08,0.52-1.02,0.94c0.07,0.53,0.5,1.22,1.16,1.5c0.8,0.35,1.3-0.1,1.42-0.66
			c0.14-0.6-0.13-1.29-0.67-1.75c-0.16-0.14-0.54-0.14-0.7,0c-0.72,0.64-0.12,2.82,1.32,2.77c1.61-0.06,1.02-2.02,0.46-2.62
			c-0.16-0.18-0.56-0.26-0.78-0.07c-0.74,0.63-0.39,2.68,1.01,2.77c1.69,0.11,1.38-2.19,0.49-2.69c-0.22-0.12-0.49-0.14-0.7,0
			c-0.97,0.65-0.24,2.41,0.9,2.76c0.79,0.24,1.17-0.41,1.27-0.87c0.14-0.63-0.06-1.33-0.44-1.9c-0.07-0.1-0.27-0.19-0.43-0.18
			c-1.35,0.12-0.86,2.41,0.03,2.78c1.82,0.75,1.95-1.91,1.37-2.56c-0.11-0.13-0.35-0.22-0.56-0.16c-1.46,0.37-1.25,2.86,0.44,2.86
			c1.58,0,1.53-2.72,0.63-3.24c-0.3-0.18-0.69-0.11-0.83,0.16c-0.41,0.78-0.5,2.39,0.46,2.99c0.67,0.42,1.3-0.03,1.54-0.51
			c0.31-0.64,0.31-1.37-0.1-1.98c-0.1-0.15-0.35-0.19-0.56-0.16c-1.32,0.18-1.14,2.77,0.25,2.83c1.6,0.07,1.44-2.49,0.44-2.94
			c-0.19-0.09-0.44-0.05-0.6,0.06c-0.59,0.4-0.63,1.06-0.54,1.6c0.06,0.36,0.35,1.23,1.09,1.11c1.32-0.21,1.26-1.97,0.82-2.64
			c-0.15-0.23-0.71-0.24-0.86,0c-0.39,0.65-0.66,2.39,0.47,2.76c1.41,0.46,1.79-1.73,1.85-2.31c0.04-0.35-0.71-0.49-0.92-0.18
			c-0.39,0.56-0.62,1.24-0.47,1.86c0.16,0.64,1.15,0.74,1.76,0.38c0.62-0.37,0.87-1.25,0.7-1.79c-0.16-0.49-0.86-0.91-1.51-0.53
			c-0.65,0.38-0.95,1.07-1.05,1.64c-0.09,0.51,0.46,1.15,1.28,0.97c1.24-0.27,2.59-2.43,1.23-3.04c-0.2-0.09-0.43-0.04-0.6,0.06
			c-0.72,0.42-1.02,1.35-1.05,1.98c-0.03,0.68,0.89,0.96,1.57,0.49c1.21-0.82-0.58-3.33-1.87-2.09c-0.58,0.56-0.95,1.68,0.19,1.99
			c1.19,0.33,0.86-1.08,0.65-1.43c-0.4-0.64-1.5-0.95-2.13-0.29c-0.58,0.61-0.59,1.51,0.29,1.97c0.13,0.07,0.37,0.06,0.5,0
			c1.01-0.49,1.02-1.89,0.15-2.46c-0.15-0.1-0.42-0.15-0.6-0.06c-0.98,0.5-0.05,1.64,1.01,1.61c1.46-0.05,0.54-1.63-0.67-1.57
			c-0.59,0.03-0.63,0.54-0.13,0.7c0.82,0.25,1.83-0.01,2.55-0.32c0.25-0.11,0.36-0.41,0.1-0.56c-0.54-0.3-1.12-0.26-1.76-0.17
			c-0.58,0.09-0.39,0.66,0.13,0.7c1.02,0.06,1.85,0.5,2.87,0.19c0.28-0.08,0.42-0.37,0.35-0.57c-0.12-0.31-0.54-0.38-0.92-0.41
			c-0.15-0.01-0.37,0.07-0.43,0.18c-0.38,0.64-0.86,1.22-1.6,1.68c-1.01,0.63-2.41,0.63-3.66,0.64c-1.28,0.01-2.47,0.26-3.73,0.37
			c-0.61,0.05-1.25,0.01-1.86-0.06c-0.29-0.03-0.57-0.07-0.85-0.12c-0.18-0.03-0.36-0.06-0.54-0.1c-0.28-0.09-0.33-0.08-0.17,0.01
			c0,0.12,0,0.24,0,0.36c0.27-0.25,1.85,0.18,2.23,0.23c0.91,0.12,1.97,0.05,2.82-0.2c0.37-0.11,0.46-0.37,0.22-0.59
			c-0.65-0.59-2.53-0.29-3.4-0.19c-0.46,0.05-1.1,0.16-1.24,0.53c-0.17,0.44,0.61,0.64,1.06,0.71c1.02,0.15,2.78-0.35,1.79-1.22
			c-1.07-0.95-3.04-0.96-4.28-1.75c-0.12,0.2-0.23,0.4-0.35,0.6c0.4-0.02,0.8-0.01,1.21-0.01c0.35,0,0.52-0.23,0.48-0.45
			c-0.06-0.3-0.31-0.48-0.61-0.69c-0.07,0.2-0.15,0.39-0.22,0.59c1.49-0.25,3.32,0.14,4.82,0.26c1.69,0.13,3.38,0.02,5.06-0.1
			c0.63-0.04,0.64-0.75,0-0.71c-1.8,0.12-3.58,0.21-5.39,0.07c-1.52-0.12-3.23-0.46-4.75-0.21c-0.37,0.06-0.48,0.41-0.22,0.59
			c0.17,0.1,0.29,0.22,0.35,0.37c0.16-0.15,0.32-0.3,0.48-0.45c-0.41,0-0.81-0.01-1.21,0.01c-0.4,0.02-0.7,0.38-0.35,0.6
			c0.68,0.43,1.51,0.67,2.35,0.92c0.43,0.13,0.87,0.25,1.27,0.42c0.17,0.07,0.31,0.15,0.46,0.24c0.15,0.1,0.13,0.15,0.19,0.12
			c-0.2,0.1-0.53,0.09-0.76,0.09c-0.08-0.01-0.16-0.02-0.25-0.03c-0.28-0.09-0.26-0.02,0.06,0.2c0.26-0.06,0.54-0.07,0.81-0.09
			c0.4-0.03,1.65-0.2,1.93,0.06c0.07-0.2,0.15-0.39,0.22-0.59c-1.13,0.33-2.25,0.21-3.4,0.02c-0.8-0.13-1.68-0.25-2.24,0.27
			c-0.1,0.09-0.09,0.26,0,0.36c0.27,0.3,0.85,0.34,1.3,0.41c0.7,0.12,1.42,0.19,2.14,0.22c1.64,0.06,3.25-0.37,4.9-0.38
			c1.35-0.01,2.63-0.12,3.76-0.69c0.96-0.48,1.57-1.22,2.03-1.97c-0.14,0.06-0.29,0.12-0.43,0.18c-0.08-0.24-0.28-0.36-0.59-0.34
			c-0.24-0.04-0.47-0.09-0.7-0.14c-0.33-0.07-0.66-0.12-1-0.14c0.04,0.23,0.09,0.46,0.13,0.7c0.21-0.03,0.6-0.12,0.79-0.02
			c0.03-0.19,0.07-0.37,0.1-0.56c-0.51,0.22-1.2,0.42-1.78,0.25c-0.04,0.23-0.09,0.46-0.13,0.7c0.09,0.02,0.17,0.03,0.26,0.05
			c0.05,0.13,0.15,0.16,0.28,0.09c-0.06-0.02-0.3-0.3-0.37-0.27c-0.2-0.02-0.4-0.04-0.6-0.06c0.37,0.24,0.54,1.12,0.05,1.35
			c0.17,0,0.33,0,0.5,0c-0.54-0.28,0.07-1.49,0.46-0.73c0.06,0.12,0.11,0.26,0.14,0.39c0.11,0.4,0.36-0.26,0.39-0.37
			c0.05-0.17,0.24-0.63,0.41-0.48c0.22,0.21,0.32,0.49,0.35,0.74c0.02,0.12,0,0.24-0.05,0.36c-0.05,0.13,0.09,0.13,0.1,0.14
			c-0.08-0.45,0.25-1.27,0.76-1.57c-0.2,0.02-0.4,0.04-0.6,0.06c0.4,0.18-0.46,1.32-0.62,1.5c-0.15,0.16-0.4,0.38-0.41,0.07
			c-0.01-0.3,0.19-0.63,0.38-0.89c0.06-0.09,0.14-0.17,0.23-0.25c0.12-0.06,0.1-0.08-0.07-0.06c0.04,0.05,0.07,0.11,0.08,0.18
			c0.06,0.31-0.07,0.65-0.27,0.93c-0.3,0.42-0.3-0.08-0.28-0.29c0.03-0.31,0.18-0.65,0.37-0.92c-0.31-0.06-0.62-0.12-0.92-0.18
			c-0.03,0.26-0.11,0.52-0.19,0.77c-0.05,0.17-0.12,0.34-0.19,0.5c-0.04,0.08-0.08,0.16-0.13,0.24c-0.15,0.25-0.13,0.03,0.09,0.16
			c-0.42-0.24-0.24-1.46-0.05-1.77c-0.29,0-0.57,0-0.86,0c0.17,0.25,0.27,1.52-0.23,1.6c0.16,0.03,0.32,0.06,0.48,0.09
			c-0.46-0.32-0.55-1.29-0.06-1.61c-0.2,0.02-0.4,0.04-0.6,0.06c0.46,0.21,0.22,1.38,0.01,1.65c0.19,0.01,0.23-0.02,0.12-0.1
			c-0.03-0.06-0.06-0.13-0.08-0.2c-0.06-0.16-0.07-0.32-0.08-0.48c-0.01-0.16,0.08-0.68,0.1-0.69c-0.19-0.05-0.37-0.11-0.56-0.16
			c0.27,0.4,0.22,0.88,0.07,1.3c-0.05,0.12-0.12,0.23-0.23,0.32c0.2,0,0.25-0.03,0.13-0.11c-0.11-0.12-0.14-0.28-0.18-0.42
			c-0.15-0.53-0.15-1.25,0.12-1.76c-0.28,0.05-0.55,0.1-0.83,0.16c0.56,0.32,0.27,1.51,0.08,1.91c-0.16,0.35-0.34-0.3-0.37-0.46
			c-0.03-0.15-0.1-0.81,0.18-0.88c-0.19-0.05-0.37-0.11-0.56-0.16c0.2,0.23,0.2,0.54,0.21,0.8c0,0.12-0.19,0.8-0.2,0.8
			c-0.25-0.16-0.29-0.62-0.32-0.84c-0.02-0.15-0.02-0.3-0.02-0.45c0.01-0.28,0.18-0.21-0.23-0.18c-0.14-0.06-0.29-0.12-0.43-0.18
			c0.32,0.48,0.65,1.45,0.04,1.87c0.16-0.03,0.32-0.06,0.48-0.09c-0.59-0.08-1.16-1.32-0.7-1.63c-0.23,0-0.47,0-0.7,0
			c0.43,0.24,0.63,1.19,0.27,1.5c0.02-0.01-0.33-0.63-0.36-0.72c-0.05-0.18-0.2-0.7-0.01-0.86c-0.26-0.02-0.52-0.05-0.78-0.07
			c0.35,0.38,0.5,1.02,0.4,1.47c-0.03,0.13,0.02,0.1-0.07,0.03c-0.18-0.12-0.28-0.34-0.36-0.5c-0.1-0.2-0.42-0.81-0.2-1.01
			c-0.23,0-0.47,0-0.7,0c0.39,0.33,0.66,1.11,0.21,1.46c0.16-0.03,0.32-0.06,0.48-0.09c-0.47-0.06-0.72-0.52-0.85-0.8
			c-0.04-0.09-0.06-0.18-0.08-0.27c0.05-0.13-0.03-0.17-0.23-0.13c0.15,0.1,0.19,0.33,0.21,0.47c0.03,0.24-0.07,0.87-0.47,0.44
			c-0.24-0.26-0.45-0.82-0.16-1.09c-0.23,0.04-0.45,0.08-0.68,0.13c0.56,0.17,0.84,0.95,0.76,1.34c-0.05,0.26-0.39-0.35-0.42-0.41
			c-0.11-0.23-0.21-0.54-0.08-0.78c-0.16,0.09-0.32,0.17-0.48,0.26c0.42-0.02,0.38,0.89-0.06,0.75c-0.28-0.09-0.5-0.25-0.71-0.4
			c-0.14-0.1-0.53-0.52-0.55-0.51c-0.2,0.02-0.4,0.04-0.6,0.06c0.21,0.07,0.37,0.17,0.53,0.29c0.05,0.03,0.53,0.57,0.58,0.51
			c-0.23,0.04-0.45,0.08-0.68,0.13c0.27,0.1,0.49,0.25,0.74,0.37c0.47,0.22,1.04-0.31,0.6-0.56c-0.37-0.21-0.65-0.43-0.81-0.76
			c-0.24,0.13-0.49,0.27-0.73,0.4c0.36,0.17,0.85,0.37,0.98,0.69c0.24-0.13,0.49-0.27,0.73-0.4c-0.76-0.36-1.76-0.95-2.01-1.6
			c-0.2,0.15-0.41,0.29-0.61,0.44c0.1,0.03,0.85,0.21,0.85,0.24c0.16-0.09,0.32-0.17,0.48-0.26c-0.16-0.09-0.33-0.17-0.49-0.26
			c-0.16,0.15-0.32,0.3-0.48,0.45c0.08-0.01,0.17-0.01,0.26-0.01c0.17-0.12,0.33-0.24,0.5-0.35c-0.06-0.01-0.11-0.03-0.17-0.04
			c-0.1,0.17-0.2,0.35-0.3,0.52c0.4-0.1,0.89-0.02,1.22,0.17c0.03-0.19,0.07-0.37,0.1-0.56c-0.05-0.03-0.09-0.06-0.14-0.09
			c-0.12,0.2-0.23,0.4-0.35,0.6c0.56-0.03,1.1-0.04,1.66,0.02c-0.04-0.23-0.09-0.46-0.13-0.7c-0.37,0.05-0.75,0.04-1.12,0.09
			C295.04,316.93,295.31,317.61,295.93,317.53L295.93,317.53z"/>
	</g>
	<g id="XMLID_24037_">
		<path id="XMLID_24038_" d="M295.01,319.44c0.12,0.52,0.33,1.01,0.51,1.52c0.06,0.16,0.26,0.25,0.48,0.26
			c2.57,0.1,5.16,0.16,7.73,0.01c1.1-0.07,2.45-0.13,3.39-0.59c0.86-0.42,0.62-1.07-0.01-1.54c-0.45-0.33-1.15,0.17-0.7,0.5
			c0.55,0.41,0.13,0.52-0.53,0.66c-1.1,0.24-2.3,0.28-3.44,0.31c-2.14,0.07-4.3,0.02-6.44-0.07c0.16,0.09,0.32,0.17,0.48,0.26
			c-0.18-0.5-0.4-1-0.51-1.52C295.87,318.8,294.91,319,295.01,319.44L295.01,319.44z"/>
	</g>
	<g id="XMLID_24034_">
		<path id="XMLID_24035_" d="M304.12,283.4c1.48,0,2.98-0.09,4.31,0.47c0.55,0.23,1.05-0.38,0.5-0.61
			c-1.49-0.62-3.13-0.56-4.81-0.56C303.48,282.69,303.48,283.4,304.12,283.4L304.12,283.4z"/>
	</g>
	<g id="XMLID_24032_">
		<path id="XMLID_24033_" d="M310.82,286.09c2.8,1.36,4.12,3.89,4.55,6.2c0.08,0.45,1.07,0.45,0.99,0c-0.48-2.58-1.92-5.3-5.04-6.81
			C310.79,285.22,310.3,285.83,310.82,286.09L310.82,286.09z"/>
	</g>
	<g id="XMLID_24030_">
		<path id="XMLID_24031_" d="M300.51,283.04c0,0.06,0,0.11,0,0.17c0,0.19,0.23,0.35,0.5,0.35c0.27,0,0.5-0.16,0.5-0.35
			c0-0.06,0-0.11,0-0.17c0-0.19-0.23-0.35-0.5-0.35C300.73,282.69,300.51,282.85,300.51,283.04L300.51,283.04z"/>
	</g>
	<g id="XMLID_24110_">
		<path id="XMLID_24111_" d="M289.81,312.73c-0.25,0.89-0.37,1.94,0.48,2.69c1.02,0.9,2.89,1.14,4.4,1.29
			c3.3,0.33,6.69,0.02,10.01,0.03c2.51,0.01,5.99,0.07,7.93-1.29c1.36-0.96,1.51-3.34-0.71-3.71c-0.59-0.1-0.84,0.55-0.25,0.65
			c1.08,0.18,1.09,1.04,0.9,1.67c-0.23,0.75-0.89,1.19-1.86,1.48c-2.1,0.63-4.58,0.54-6.81,0.53c-2.66-0.02-5.32,0.18-7.98,0.07
			c-1.42-0.06-2.89-0.24-4.17-0.7c-1.35-0.48-1.28-1.62-1.03-2.52C290.83,312.48,289.93,312.3,289.81,312.73L289.81,312.73z"/>
	</g>
	<g id="XMLID_24108_">
		<path id="XMLID_24109_" d="M292.9,316.48c0.17,0.9,0.7,1.87,1.39,2.63c0.7,0.77,2.01,0.83,3.18,0.87
			c3.36,0.11,7.18,0.47,10.37-0.44c0.51-0.14,0.41-0.61-0.13-0.66c-0.12-0.02-0.24-0.05-0.36-0.08c0.09,0.16,0.19,0.33,0.28,0.49
			c0.71-0.83,1.04-1.97,2.14-2.59c0.48-0.27-0.19-0.74-0.67-0.48c-1.18,0.66-1.53,1.85-2.29,2.73c-0.17,0.2,0,0.42,0.28,0.49
			c0.21,0.06,0.39,0.09,0.61,0.11c-0.04-0.22-0.08-0.44-0.13-0.66c-2.94,0.83-6.17,0.44-9.24,0.42c-1.13,0-2.66,0.11-3.35-0.66
			c-0.61-0.68-1.04-1.56-1.19-2.36C293.72,315.88,292.82,316.06,292.9,316.48L292.9,316.48z"/>
	</g>
</g>
</svg>
