<svg id="Layer_1" data-name="Layer 1" xmlns="http://www.w3.org/2000/svg" viewBox="0 0 465.8 511.75"><defs><style>.cls-1{fill:#606060;}.cls-2{fill:#595959;}.cls-3{fill:#fefefe;}</style></defs><path d="M314,44.13c6.14,2.47,12.81,2.22,19.14,3.87,52.67,13.72,88.06,46.31,105.74,97.62,9.54,27.72,9.21,55.7-.23,83.71-14.88,44.13-36.24,85.15-59.15,125.44-24,42.2-49.84,83.27-77,123.52-1.55,2.29-2.3,4.2-4.82.42-39.33-58.9-76.84-118.88-108.39-182.39-12.19-24.53-23.11-49.63-30.5-76.13-10.07-36.06-3.49-69.93,14.34-101.86C191.43,85.62,219,63.57,254.45,51.5a121.88,121.88,0,0,1,22.74-5.44c2.34-.32,4.93,0,6.83-1.93h7a2.3,2.3,0,0,0,3,0h12a1.31,1.31,0,0,0,2,0Z" transform="translate(-67.12 -44.13)"/><path d="M67.12,555.87q58.17-72.71,116.32-145.45a5.72,5.72,0,0,1,5-2.39c13.33.11,26.65.07,40,0,1.88,0,3.43.05,4.59,2,3.61,6.12,7.44,12.11,11.3,18.34-1.7,1.29-3.39.74-4.92.74-13.5.05-27,.08-40.48,0a6.16,6.16,0,0,0-5.47,2.53Q153.27,482,113,532.27c-.48.6-.89,1.25-1.64,2.31H488c.57-1.7-1.1-2.46-1.91-3.48Q446.54,481.55,406.91,432a7.07,7.07,0,0,0-6.31-2.88c-14.79.1-29.59.05-45.36.05,4.4-7.08,8.4-13.48,12.34-19.93.9-1.46,2.23-1.18,3.52-1.18,13.65,0,27.31.05,41-.06a5.23,5.23,0,0,1,4.52,2.4q58.14,72.74,116.33,145.44Z" transform="translate(-67.12 -44.13)"/><path class="cls-1" d="M294,44.13c-1,1.21-2,1.53-3,0Z" transform="translate(-67.12 -44.13)"/><path class="cls-2" d="M308,44.13c-.66,1.3-1.33,1.1-2,0Z" transform="translate(-67.12 -44.13)"/><path class="cls-3" d="M299.8,263A73,73,0,1,1,373,190.32,73,73,0,0,1,299.8,263Z" transform="translate(-67.12 -44.13)"/></svg>