<?xml version="1.0" encoding="utf-8"?>
<!-- Generator: Adobe Illustrator 27.2.0, SVG Export Plug-In . SVG Version: 6.00 Build 0)  -->
<svg version="1.1" id="Layer_1" xmlns="http://www.w3.org/2000/svg" xmlns:xlink="http://www.w3.org/1999/xlink" x="0px" y="0px"
	 viewBox="0 0 700 455.4" style="enable-background:new 0 0 700 455.4;" xml:space="preserve">
<style type="text/css">
	.st0{fill:#D70000;}
	.st1{fill:url(#SVGID_1_);}
	.st2{fill:#FFFFFF;}
	.st3{fill:#FF0047;}
	.st4{fill:url(#SVGID_00000171714594794282463260000001190900037730356366_);}
	.st5{opacity:0.4;fill:#D30040;enable-background:new    ;}
	.st6{fill:#DAE5EC;}
	.st7{fill:#C0CBCD;}
</style>
<g>
	<g id="Layer_1_00000127760191845794409130000009487822601681984145_">
		<polygon class="st0" points="269.8,112.3 244,109.8 250.1,154.2 		"/>
		<polygon class="st0" points="309,118.8 256,163 300.9,145.2 		"/>
		<polygon class="st0" points="568,186.6 132.6,439.8 131.3,269.5 566.7,16.3 		"/>
		
			<linearGradient id="SVGID_1_" gradientUnits="userSpaceOnUse" x1="-494.8029" y1="1909.0103" x2="-400.8549" y2="2002.9683" gradientTransform="matrix(0.9134 -0.2898 1.139431e-02 0.7199 604.2192 -1124.2688)">
			<stop  offset="0" style="stop-color:#520000"/>
			<stop  offset="1" style="stop-color:#B0111F"/>
		</linearGradient>
		<polygon class="st1" points="132.6,439.8 272.6,420.7 257.6,366.8 		"/>
		<path class="st2" d="M150.3,440.9c-11.4,3.7-22-1.6-26.6-13.6l-10-25.5c-0.3,0.1-0.6,0.2-0.9,0.3c-4.3,1.2-8.8,1.8-13,1.4
			c-2.8-0.2-5.6-0.8-8.1-1.7c-2.7-1-5.1-2.3-7.4-3.8c-6-4.1-10.7-10.5-13.7-18.3c-4.9-12.6-5.3-28-0.9-43.5s12.8-28.9,23.8-38.1
			l37.6-31.3l0.6,1.6c11.8-13.1,35.5-43.2,42.7-81c2.2-25.2,11.2-37.6,18.4-43.6c2.9-2.4,6.2-4.3,9.7-5.4
			c26.8-8.6,55.4,29.8,71.7,71.7c19.7,50.3,25,113.2-2.5,136.1c-2.9,2.4-6.2,4.3-9.7,5.4l0,0c-8,2.6-16.5,1-25.4-4.5
			c-12.5-5-27.2-4.7-43.9,0.6c-9.6,3.1-19,7.6-27.7,13.1l9.4,24.3c3,8.1,3.3,17.4,0.5,26.7c-2.7,9.5-7.9,17.8-14.7,23.5
			C157.4,437.8,154,439.7,150.3,440.9z"/>
		
			<ellipse transform="matrix(0.9703 -0.2419 0.2419 0.9703 -73.6888 42.7387)" class="st3" cx="137.2" cy="321.5" rx="14.6" ry="32.3"/>
		<g>
			
				<linearGradient id="SVGID_00000124850242962278797320000012751473292492099985_" gradientUnits="userSpaceOnUse" x1="40.9511" y1="1.4806" x2="86.1176" y2="1.4806" gradientTransform="matrix(0.992 -0.1258 -0.1258 -0.992 80.5439 401.3525)">
				<stop  offset="0" style="stop-color:#520000"/>
				<stop  offset="1" style="stop-color:#B0111F"/>
			</linearGradient>
			<path style="fill:url(#SVGID_00000124850242962278797320000012751473292492099985_);" d="M158.5,427.4L158.5,427.4
				c-8.1,6.7-17.6,4.6-21.3-4.9l-18.7-46.9l29.1-24.4l18.7,46.9C170.1,407.5,166.6,420.6,158.5,427.4z"/>
			<polygon class="st5" points="156.3,373 131,406.8 118.5,375.5 147.6,351.2 			"/>
			<path class="st0" d="M154.3,361.8l-26.4,22.1c-16.6,14-36.5,9.5-44.2-10.1l0,0c-7.8-19.6-0.6-46.8,16.1-60.7l26.4-22.1
				L154.3,361.8z"/>
			<path class="st0" d="M83.8,373.8L83.8,373.8c7.8,19.6,27.5,24.1,44.2,10.1l26.4-22.1l-14.1-35.4L83.8,373.8z"/>
			<path class="st6" d="M130.8,290.8c-6.2,5.2-5.3,24,1.8,42c7.1,18.1,18,28.5,24.2,23.3c0.3-0.2,47.5-36.1,88-17.6l-59.5-149.8
				C176.1,249.1,131.2,290.5,130.8,290.8z"/>
			<path class="st7" d="M132.7,332.8c7.1,18.1,18,28.5,24.2,23.3c0.3-0.2,47.5-36.1,88-17.6l-29.8-74.9L132.7,332.8z"/>
			
				<ellipse transform="matrix(0.9496 -0.3134 0.3134 0.9496 -66.4904 85.2571)" class="st0" cx="231.9" cy="249.4" rx="37.7" ry="97.8"/>
			
				<ellipse transform="matrix(0.9428 -0.3334 0.3334 0.9428 -69.9079 91.5993)" class="st6" cx="231.9" cy="249.5" rx="24.7" ry="77.6"/>
			<ellipse transform="matrix(0.9366 -0.3503 0.3503 0.9366 -74.793 95.3094)" class="st7" cx="226" cy="254.4" rx="17.5" ry="74"/>
		</g>
		<path class="st0" d="M231.9,249.5c-5-12.6-17.4-15.9-28.2-7.6c2.2,8,5,16.2,8.2,24.4c3.3,8.2,6.8,15.9,10.5,22.6
			C232.6,279.4,236.9,262.1,231.9,249.5z"/>
		<g>
			<path class="st2" d="M294.8,219.7l8.5-5l9.6,34.7c0.9,3.5,2,7.1,3.3,10.5c1.1,2.4,2.6,4,4.3,4.8s3.9,0.4,6.2-1
				c2.2-1.2,3.9-3.2,4.8-5.4c0.8-2.2,1.1-4.6,0.7-6.8c-0.7-3.7-1.5-7.5-2.7-11.1l-9.9-35.4l8.5-5l9.4,33.6
				c2.1,7.7,3.4,13.2,3.9,16.7c0.4,3.1,0.4,6.4-0.4,9.5c-0.6,2.9-1.8,5.6-3.5,8.2c-2,2.7-4.6,5-7.6,6.7c-4.1,2.4-7.3,3.4-9.7,3.2
				c-2.4-0.2-4.7-1.1-6.5-2.6c-1.8-1.6-3.4-3.5-4.4-5.7c-1.6-3.4-3.4-8.5-5.4-15.7L294.8,219.7z"/>
			<path class="st2" d="M355.3,258.7l-17.9-63.9l17.9-10.5c4.5-2.6,8-4,10.3-4c2.4,0,4.6,1.1,6.6,3.2c2.2,2.6,3.8,5.6,4.7,9
				c1.3,4.4,1.5,9.1,0.5,13.5c-1,4.2-3.3,8-6.7,10.8c2.2,0.5,4.2,1.5,6,2.7c1.8,1.3,4.4,3.8,7.7,7.6l8.7,9.4l-10.1,5.9l-10-10.3
				c-3.6-3.6-6-5.9-7.1-6.8c-1-0.7-2.1-1.2-3.3-1.1c-1,0.1-2.5,0.6-4.5,1.8l-1.7,1l7.4,26.7L355.3,258.7z M353.4,216.8l6.3-3.7
				c4.1-2.4,6.6-4.2,7.4-5.2c0.9-1.2,1.5-2.6,1.7-4.1c0.2-1.8,0-3.6-0.5-5.3c-0.6-2.1-1.5-3.7-2.5-4.5c-1.1-0.8-2.6-1.1-3.9-0.6
				c-2.1,1-4.3,2.1-6.2,3.5l-6.6,3.9L353.4,216.8z"/>
			<path class="st2" d="M410.7,198.8l-3-10.8l18.3-10.7l7.1,25.5c-1.3,4.1-3.2,8-5.8,11.5c-2.4,3.6-5.7,6.7-9.4,9.1
				c-4.4,2.5-8.6,3.4-12.7,2.5c-4.1-0.9-7.7-3.5-10.7-7.7c-3.3-4.7-5.7-10-7.2-15.6c-1.8-6.3-2.5-12.8-2.2-19.4
				c0.3-5.8,1.9-11.5,4.7-16.6c2.1-3.8,5.4-6.9,9.2-9.1c5.2-3.1,9.7-3.8,13.7-2.2c3.8,1.6,7,5.1,9.5,10.5l-7.8,7.3
				c-1.5-2.8-3.2-4.6-5.4-5.5c-2.2-0.9-4.5-0.6-6.8,0.8c-3.7,2.2-6.2,5.7-7.4,10.5c-1.2,4.9-0.8,10.8,1.1,17.9
				c2.1,7.6,4.8,12.6,8,15.1c3.3,2.5,6.7,2.6,10.3,0.6c1.9-1.2,3.6-2.9,4.9-4.7c1.5-2,2.7-4.2,3.5-6.6l-2.3-8.1L410.7,198.8z"/>
			<path class="st2" d="M443.5,206.9l-17.8-64l31.2-18.4l3,10.8l-22.7,13.4l4,14.2l21.2-12.4l3,10.8l-21.2,12.4l4.9,17.4l23.5-13.8
				l3,10.8L443.5,206.9z"/>
			<path class="st2" d="M482.8,183.8L465,119.9l8.3-4.9l29.1,32.6L490.5,105l7.9-4.6l17.8,64l-8.5,5l-28.5-31.8l11.6,41.7
				L482.8,183.8z"/>
			<path class="st2" d="M534.7,153.3l-14.8-53.1l-12.5,7.3l-3-10.8l33.5-19.7l3,10.8l-12.5,7.3l14.8,53.1L534.7,153.3z"/>
		</g>
	</g>
</g>
</svg>
