<?xml version="1.0" encoding="UTF-8"?>
<svg id="Layer_1" data-name="Layer 1" xmlns="http://www.w3.org/2000/svg" viewBox="0 0 300.21 296.31">
  <defs>
    <style>
      .cls-1 {
        fill: #555;
      }
    </style>
  </defs>
  <path class="cls-1" d="m300.19,135.59c-.75.18-.88.81-.89,1.4-.12,1.76-.76,3.44-1.84,4.83-.6.89-1,1.93-1.51,2.85-4,6.73-9.93,10.77-17.3,13-3.42,1-6.98,1.41-10.54,1.2-1.58-.08-2,.37-1.95,2,.41,14.34.07,28.69.17,43-.05,1.07-.15,2.15-.3,3.21-.27,2.69-2.32,3.6-4.44,4.43-.32.07-.65,0-.92-.2-3.85-1.87-6.63-4.93-9.14-8.29-.26-.45-.36-.98-.29-1.5v-7.68c0-34.36.14-68.73-.1-103.09-.06-7.56-2.33-14.75-8.24-20.22-2.68-2.43-5.95-4.1-9.49-4.86-2.09-.39-4.13-.99-6.09-1.79-.25-.13-.53-.19-.81-.16-2.92.54-5.71-.35-8.54-.82-1.57-.27-3.16-.41-4.76-.41-41.16,0-82.31,0-123.46,0-3.11,0-6.21.37-9.33,0-2.8-.34-4.12-1.7-4.12-4.5,0-9.71.2-19.43-.08-29.13-.18-6.48,2-11.85,5.66-17s8.52-7.8,14-10.06c2.24-.96,4.63-1.53,7.07-1.68,1.43-.11,2.87-.15,4.31-.1h141.3c8.36,0,16.71.08,25.06.08,6.55,0,12,2.7,16.82,6.85,3.06,2.71,5.62,5.93,7.58,9.52,1.3,1.99,1.95,4.33,1.87,6.71-.06.49.05.98.32,1.39l-.02,111.02Z"/>
  <path class="cls-1" d="m.21,217.83h-.21v-101.46h.22c.49.2.53.65.57,1.09.06.64,0,1.28,0,1.92v97.33c-.08.47-.08.92-.58,1.12Z"/>
  <path class="cls-1" d="m.21,217.83v-101.43c.08-4-.16-8,.65-11.94,1.13-6.05,4.58-11.41,9.62-14.94,4.14-3,8.53-5.34,13.66-6.06.83-.11,1.67-.17,2.51-.16h160.74c1.02.44,1.92,1.1,2.64,1.94,14.67,14.67,29.33,29.31,44,43.94.8.71,1.42,1.58,1.84,2.56v29c0,18.26.05,36.52,0,54.78.01,12.92-8.02,24.49-20.13,29-2.74,1.04-5.64,1.57-8.57,1.57-22.55,0-45.11.08-67.66,0-4.59,0-9.19-.09-13.79-.16-7.15-.12-12.76,3-17.36,8.25-2.68,3.07-5.47,6-8.22,9-6.44,6.99-12.89,13.98-19.35,20.95-3,3.21-5.84,6.56-9.37,9.24-2.6,2.18-5.97,3.21-9.35,2.88-2.26-.26-4.88-2.89-5-5.12-.27-7.11-.21-14.22-.22-21.32,0-2.12.33-4.23.21-6.35-.21-3.5-.11-7-.46-10.52-.48-4.73-2.63-6.77-7.41-6.81-6.52-.05-13-.18-19.55,0-7.24.22-13.4-2.26-19.18-6.38-6.29-4.49-9.37-10.59-10.06-18.11-.08-1.27-.14-2.53-.19-3.81Z"/>
  <path class="cls-1" d="m235.87,131.75c-.38-.35-.79-.68-1.15-1.05-15.43-15.41-30.85-30.82-46.28-46.24-.37-.36-.69-.77-1-1.15,6.95,0,13.9-.05,20.85,0,5.9,0,11.59,2.17,16,6.08,4.8,4.09,8.38,9.43,10.34,15.42.79,2.39,1.21,4.89,1.25,7.41.05,6.52-.01,13.02-.01,19.53Z"/>
</svg>