<svg id="Layer_1" data-name="Layer 1" xmlns="http://www.w3.org/2000/svg" viewBox="0 0 110.5 108.5"><defs><style>.cls-1,.cls-2{fill:#f9ef6b;stroke:#222221;stroke-miterlimit:10;stroke-width:0.5px;}.cls-1{opacity:0.65;}</style></defs><path class="cls-1" d="M271.82,301.53l12.08,39.79S285.41,345,287,345s25.66-29.77,25.66-29.77l26.75-61.48-67.18,37.48Z" transform="translate(-244.75 -239.75)"/><path class="cls-1" d="M287.84,311.74l-2.32,29.32s-1,9,6.58,0,14.77-15.91,14.77-15.91Z" transform="translate(-244.75 -239.75)"/><path class="cls-2" d="M272,303l-24.84-9.63a4,4,0,0,1-2-4.68,4.52,4.52,0,0,1,1.78-2.23c5.5-4.57,101.88-45.8,101.88-45.8s2.73-1.09,4.33-.36c.74.33,1.21.7,1.6,2.07a10.9,10.9,0,0,1,.22,2.61c0,.76-.09,1.47-.14,2.57-.59,11.27-18.16,95.4-18.16,95.4s-1.05,4.93-4.81,5.09c-1.37.06-3-.27-5-2.31-7.39-7.56-32.93-28-38.58-32.48a1.34,1.34,0,0,1-.46-.91,1.76,1.76,0,0,1,.35-1.06s44.48-47.05,45.66-52c.09-.39-.25-.58-.72-.41-2.95,1.29-54.16,39.78-59.81,44C273,303.11,272,303,272,303Z" transform="translate(-244.75 -239.75)"/></svg>