<?xml version="1.0" encoding="utf-8"?>
<!-- Generator: Adobe Illustrator 27.2.0, SVG Export Plug-In . SVG Version: 6.00 Build 0)  -->
<svg version="1.1" id="Layer_1" xmlns="http://www.w3.org/2000/svg" xmlns:xlink="http://www.w3.org/1999/xlink" x="0px" y="0px"
	 viewBox="0 0 500 500" style="enable-background:new 0 0 500 500;" xml:space="preserve">
<style type="text/css">
	.st0{fill:#F9EF6B;}
</style>
<path d="M23.8,0h452.5C489.4,0,500,10.6,500,23.8v452.5c0,13.1-10.6,23.8-23.8,23.8H23.8C10.6,500,0,489.4,0,476.2V23.8
	C0,10.6,10.6,0,23.8,0z"/>
<path class="st0" d="M420.9,332.2c-2.2-3.8-17.1-11.8-17.1-11.8c-5.9-3.2-49.4-26.9-57.6-30.1c-7-2.8-14.9-6-22,5.8
	c-5.4,8.9-21.2,29.3-26.4,35.8c-3.6,4.5-6.9,6-14.9,1.6c-1.3-0.7-40.1-19.1-66.8-45.3c-23.7-23.2-40.1-51.9-46.1-63.2
	c-3.7-6.9-1.3-10.1,3.2-15.1c2.8-3,15.1-19.5,16-21.1c2-3.3,5.4-11.2,5.4-11.2c3.5-7.7,1.3-14.5-0.6-18.9
	c-1.4-3.1-23.7-62.6-25.8-68.2c-6.4-16.8-13.1-17.7-19.6-17.3c-3.2,0.2-32.7,0.5-42.1,11.8l-1.7,1.9c-9.2,10.8-28.4,33.3-28.4,76.9
	c0.1,10.9,1.6,21.7,4.4,32.2c5.5,21,16.2,44,30.4,65c0.3,0.5,21.9,33.7,32.7,47.5c34.1,43.6,72.7,75.8,111.6,92.7
	c49.7,21.5,70.9,26.5,83,26.5c5.3,0,16.4-3,18.8-3.2c15.2-1.5,51.3-22.4,58.9-45.8C423.5,356.5,423.6,337.1,420.9,332.2z"/>
</svg>
