<?xml version="1.0" encoding="utf-8"?>
<!-- Generator: Adobe Illustrator 27.2.0, SVG Export Plug-In . SVG Version: 6.00 Build 0)  -->
<svg version="1.1" id="Layer_1" xmlns="http://www.w3.org/2000/svg" xmlns:xlink="http://www.w3.org/1999/xlink" x="0px" y="0px"
	 viewBox="0 0 110.5 108.5" style="enable-background:new 0 0 110.5 108.5;" xml:space="preserve">
<style type="text/css">
	.st0{fill:none;stroke:#000000;stroke-width:2;stroke-miterlimit:10;enable-background:new    ;}
	.st1{fill:none;stroke:#000000;stroke-width:2;stroke-miterlimit:10;}
</style>
<path class="st0" d="M27.8,63c4.4,13.6,8.7,27.1,13.1,40.7"/>
<path class="st0" d="M43.2,73.3l-2.3,28.4c0,0-0.4,3.2,1,3.8c1.4,0.6,3.9-2.1,5.4-3.8c3-3.3,7.4-8,13.4-14.2
	C54.8,82.8,49,78,43.2,73.3z"/>
<path class="st1" d="M27.2,63.2L2.4,53.6c-1.7-0.9-2.5-2.8-2-4.7c0.3-0.9,1-1.7,1.8-2.2C7.7,42.1,104.1,0.9,104.1,0.9
	s2.7-1.1,4.3-0.4c0.7,0.3,1.2,0.7,1.6,2.1c0.2,0.9,0.3,1.7,0.2,2.6c0,0.8-0.1,1.5-0.1,2.6c-0.6,11.3-18.2,95.4-18.2,95.4
	s-1,4.9-4.8,5.1c-1.4,0.1-3-0.3-5-2.3c-7.4-7.6-32.9-28-38.6-32.5c-0.3-0.2-0.4-0.6-0.5-0.9c0-0.4,0.1-0.8,0.4-1.1
	c0,0,44.5-47,45.7-52c0.1-0.4-0.2-0.6-0.7-0.4c-3,1.3-54.2,39.8-59.8,44C28.2,63.4,27.2,63.2,27.2,63.2z"/>
</svg>
