<?xml version="1.0" encoding="UTF-8"?>
<svg id="Layer_1" data-name="Layer 1" xmlns="http://www.w3.org/2000/svg" viewBox="0 0 166.39 166.39">
  <defs>
    <style>
      .cls-1 {
        fill: #fed700;
      }
    </style>
  </defs>
  <circle class="cls-1" cx="83.19" cy="83.19" r="83.19"/>
  <g>
    <path d="m105.79,113.42c-4.87,2.74-46.84,26.89-46.84,26.89v-16.38s35.34-20.41,38.31-22.01c2.97-1.6,3.66-2.8,3.66-4.56s-.69-2.96-3.66-4.56c-2.97-1.6-38.31-22.01-38.31-22.01v-16.38s0-31.47,0-31.47l14.37,8.7-.07,30.99c12.65,7.27,29.56,16.98,32.54,18.66,4.87,2.74,9.83,9.05,9.83,16.06,0,7.02-4.95,13.32-9.83,16.06Z"/>
    <path d="m105.79,81.62c-2.98,1.68-19.85,11.37-32.5,18.64l.03,7.33-14.37,8.7v-7.78s0-13.3,0-13.3v-3.08s35.34-20.41,38.31-22.01c2.97-1.6,3.66-2.8,3.66-4.56s-.69-2.96-3.66-4.56c-1.32-.71-9.05-5.15-17.23-9.85v-16.41c11.25,6.47,23.28,13.37,25.76,14.76,4.87,2.74,9.83,9.05,9.83,16.06,0,7.02-4.95,13.32-9.83,16.06Z"/>
  </g>
</svg>