<?xml version="1.0" encoding="utf-8"?>
<!-- Generator: Adobe Illustrator 27.2.0, SVG Export Plug-In . SVG Version: 6.00 Build 0)  -->
<svg version="1.1" id="Layer_1" xmlns="http://www.w3.org/2000/svg" xmlns:xlink="http://www.w3.org/1999/xlink" x="0px" y="0px"
	 viewBox="0 0 166.4 166.4" style="enable-background:new 0 0 166.4 166.4;" xml:space="preserve">
<style type="text/css">
	.st0{fill:#FED700;stroke:#000000;stroke-miterlimit:10;}
</style>
<circle class="st0" cx="83.2" cy="83.2" r="81.5"/>
<g>
	<path d="M105.3,112.8c-4.8,2.7-45.9,26.4-45.9,26.4v-16.1c0,0,34.6-20,37.5-21.6c2.9-1.6,3.6-2.7,3.6-4.5s-0.7-2.9-3.6-4.5
		C94.1,91,59.4,71,59.4,71V55V24.1l14.1,8.5L73.5,63c12.4,7.1,29,16.6,31.9,18.3c4.8,2.7,9.6,8.9,9.6,15.7
		C115,104,110.1,110.1,105.3,112.8L105.3,112.8z"/>
	<path d="M105.3,81.7c-2.9,1.6-19.5,11.1-31.9,18.3l0,7.2l-14.1,8.5V108V95v-3c0,0,34.6-20,37.5-21.6c2.9-1.6,3.6-2.7,3.6-4.5
		S99.9,63,97,61.4c-1.3-0.7-8.9-5-16.9-9.7V35.7c11,6.3,22.8,13.1,25.2,14.5c4.8,2.7,9.6,8.9,9.6,15.7C115,72.8,110.1,79,105.3,81.7
		L105.3,81.7z"/>
</g>
</svg>
