<svg id="Layer_1" data-name="Layer 1" xmlns="http://www.w3.org/2000/svg" viewBox="0 0 938 348"><defs><style>.cls-1{fill:none;stroke:#000;stroke-miterlimit:10;stroke-width:10px;}.cls-2{fill:#e6e6e6;}</style></defs><rect class="cls-1" x="113.84" y="96.16" width="819.16" height="246.84" rx="42.79"/><rect class="cls-2" x="59.84" y="52.16" width="830.32" height="265.69" rx="42.79"/><ellipse cx="9" cy="131.6" rx="9" ry="9.4"/><ellipse cx="40" cy="131.6" rx="9" ry="9.4"/><ellipse cx="70" cy="131.6" rx="9" ry="9.4"/><ellipse cx="102" cy="131.6" rx="9" ry="9.4"/><ellipse cx="133" cy="131.6" rx="9" ry="9.4"/><ellipse cx="164" cy="131.6" rx="9" ry="9.4"/><ellipse cx="9" cy="94" rx="9" ry="9.4"/><ellipse cx="40" cy="94" rx="9" ry="9.4"/><ellipse cx="70" cy="94" rx="9" ry="9.4"/><ellipse cx="102" cy="94" rx="9" ry="9.4"/><ellipse cx="133" cy="94" rx="9" ry="9.4"/><ellipse cx="164" cy="94" rx="9" ry="9.4"/><ellipse cx="9" cy="52.22" rx="9" ry="9.4"/><ellipse cx="40" cy="52.22" rx="9" ry="9.4"/><ellipse cx="70" cy="52.22" rx="9" ry="9.4"/><ellipse cx="102" cy="52.22" rx="9" ry="9.4"/><ellipse cx="133" cy="52.22" rx="9" ry="9.4"/><ellipse cx="164" cy="52.22" rx="9" ry="9.4"/><ellipse cx="9" cy="9.4" rx="9" ry="9.4"/><ellipse cx="40" cy="9.4" rx="9" ry="9.4"/><ellipse cx="70" cy="9.4" rx="9" ry="9.4"/><ellipse cx="102" cy="9.4" rx="9" ry="9.4"/><ellipse cx="133" cy="9.4" rx="9" ry="9.4"/><ellipse cx="164" cy="9.4" rx="9" ry="9.4"/><rect x="239" y="25" width="567" height="10" rx="5"/></svg>