<?xml version="1.0" encoding="utf-8"?>
<!-- Generator: Adobe Illustrator 26.0.1, SVG Export Plug-In . SVG Version: 6.00 Build 0)  -->
<svg version="1.1" id="Layer_1" xmlns="http://www.w3.org/2000/svg" xmlns:xlink="http://www.w3.org/1999/xlink" x="0px" y="0px"
	 viewBox="0 0 938.9 344.2" style="enable-background:new 0 0 938.9 344.2;" xml:space="preserve">
<style type="text/css">
	.st0{fill:none;stroke:#000000;stroke-width:10;stroke-miterlimit:10;}
	.st1{fill:#F8EE6B;}
</style>
<g>
	<path class="st0" d="M893.2,341.7H159.5c-23.6,0-42.8-19.2-42.8-42.8V137.7c0-23.6,19.2-42.8,42.8-42.8h733.6
		c23.6,0,42.8,19.2,42.8,42.8V299C935.9,322.6,916.8,341.7,893.2,341.7z"/>
	<path class="st1" d="M850.3,316.6H105.5c-23.6,0-42.8-19.2-42.8-42.8V93.7c0-23.6,19.2-42.8,42.8-42.8h744.8
		c23.6,0,42.8,19.2,42.8,42.8v180.1C893.2,297.4,873.9,316.6,850.3,316.6z"/>
	<g>
		<g>
			<ellipse cx="11.9" cy="130.3" rx="9" ry="9.4"/>
			<ellipse cx="42.9" cy="130.3" rx="9" ry="9.4"/>
			<ellipse cx="72.9" cy="130.3" rx="9" ry="9.4"/>
			<ellipse cx="104.9" cy="130.3" rx="9" ry="9.4"/>
			<ellipse cx="135.9" cy="130.3" rx="9" ry="9.4"/>
			<ellipse cx="166.9" cy="130.3" rx="9" ry="9.4"/>
		</g>
		<g>
			<ellipse cx="11.9" cy="92.7" rx="9" ry="9.4"/>
			<ellipse cx="42.9" cy="92.7" rx="9" ry="9.4"/>
			<ellipse cx="72.9" cy="92.7" rx="9" ry="9.4"/>
			<ellipse cx="104.9" cy="92.7" rx="9" ry="9.4"/>
			<ellipse cx="135.9" cy="92.7" rx="9" ry="9.4"/>
			<ellipse cx="166.9" cy="92.7" rx="9" ry="9.4"/>
		</g>
		<g>
			<ellipse cx="11.9" cy="50.9" rx="9" ry="9.4"/>
			<ellipse cx="42.9" cy="50.9" rx="9" ry="9.4"/>
			<ellipse cx="72.9" cy="50.9" rx="9" ry="9.4"/>
			<ellipse cx="104.9" cy="50.9" rx="9" ry="9.4"/>
			<ellipse cx="135.9" cy="50.9" rx="9" ry="9.4"/>
			<ellipse cx="166.9" cy="50.9" rx="9" ry="9.4"/>
		</g>
		<g>
			<ellipse cx="11.9" cy="8.1" rx="9" ry="9.4"/>
			<ellipse cx="42.9" cy="8.1" rx="9" ry="9.4"/>
			<ellipse cx="72.9" cy="8.1" rx="9" ry="9.4"/>
			<ellipse cx="104.9" cy="8.1" rx="9" ry="9.4"/>
			<ellipse cx="135.9" cy="8.1" rx="9" ry="9.4"/>
			<ellipse cx="166.9" cy="8.1" rx="9" ry="9.4"/>
		</g>
	</g>
	<path d="M803.9,33.7h-557c-2.8,0-5-2.2-5-5l0,0c0-2.8,2.2-5,5-5h557c2.8,0,5,2.2,5,5l0,0C808.9,31.5,806.8,33.7,803.9,33.7z"/>
</g>
</svg>
